                                                                        S      1
,,18HWheel and Axle Hub,18HWheel and Axle Hub,7Hunknown,7Hunknown,32,38,G      1
7,99,15,,1.,2,2HMM,1,0.08,15H20141002.223210,0.01,10000.,7Hunknown,7HunkG      2
nown,11,0,;                                                             G      3
     186       1                                                00000000D      1
     186            -123       1       0                               0D      2
     186       2                                                00000000D      3
     186            -123       1       0                               0D      4
     514       3                                                00010000D      5
     514                       1       1                               0D      6
     514       4                                                00010000D      7
     514                       1       1                               0D      8
     510       5                                                00010000D      9
     510            -123       1       1                               0D     10
     510       6                                                00010000D     11
     510            -123       1       1                               0D     12
     510       7                                                00010000D     13
     510            -123       1       1                               0D     14
     510       8                                                00010000D     15
     510            -123       1       1                               0D     16
     510       9                                                00010000D     17
     510            -123       1       1                               0D     18
     510      10                                                00010000D     19
     510            -123       1       1                               0D     20
     510      11                                                00010000D     21
     510            -123       1       1                               0D     22
     510      12                                                00010000D     23
     510            -123       1       1                               0D     24
     510      13                                                00010000D     25
     510            -123       1       1                               0D     26
     510      14                                                00010000D     27
     510            -123       1       1                               0D     28
     508      15                                                00010000D     29
     508                       1       1                               0D     30
     508      16                                                00010000D     31
     508                       2       1                               0D     32
     508      18                                                00010000D     33
     508                       1       1                               0D     34
     508      19                                                00010000D     35
     508                       1       1                               0D     36
     508      20                                                00010000D     37
     508                       1       1                               0D     38
     508      21                                                00010000D     39
     508                       1       1                               0D     40
     508      22                                                00010000D     41
     508                       1       1                               0D     42
     508      23                                                00010000D     43
     508                       1       1                               0D     44
     508      24                                                00010000D     45
     508                       1       1                               0D     46
     508      25                                                00010000D     47
     508                       2       1                               0D     48
     508      27                                                00010000D     49
     508                       2       1                               0D     50
     508      29                                                00010000D     51
     508                       1       1                               0D     52
     508      30                                                00010000D     53
     508                       1       1                               0D     54
     126      31                                                00010000D     55
     126       0              13       0                               0D     56
     126      44                                                00010000D     57
     126       0               4       0                               0D     58
     126      48                                                00010000D     59
     126       0              10       0                               0D     60
     126      58                                                00010000D     61
     126       0               9       0                               0D     62
     126      67                                                00010000D     63
     126       0               4       0                               0D     64
     126      71                                                00010000D     65
     126       0               9       0                               0D     66
     126      80                                                00010000D     67
     126       0               6       0                               0D     68
     126      86                                                00010000D     69
     126       0               5       0                               0D     70
     126      91                                                00010000D     71
     126       0              12       0                               0D     72
     126     103                                                00010000D     73
     126       0               3       0                               0D     74
     126     106                                                00010000D     75
     126       0              10       0                               0D     76
     126     116                                                00010000D     77
     126       0               7       0                               0D     78
     126     123                                                00010000D     79
     126       0               8       0                               0D     80
     126     131                                                00010000D     81
     126       0               7       0                               0D     82
     126     138                                                00010000D     83
     126       0               8       0                               0D     84
     126     146                                                00010000D     85
     126       0               2       0                               0D     86
     126     148                                                00010000D     87
     126       0              18       0                               0D     88
     126     166                                                00010000D     89
     126       0              12       0                               0D     90
     128     178                                                00010000D     91
     128       0    -123      18       0                               0D     92
     128     196                                                00010000D     93
     128       0    -123      19       0                               0D     94
     128     215                                                00010000D     95
     128       0    -123       2       0                               0D     96
     128     217                                                00010000D     97
     128       0    -123       4       0                               0D     98
     128     221                                                00010000D     99
     128       0    -123      16       0                               0D    100
     128     237                                                00010000D    101
     128       0    -123       4       0                               0D    102
     128     241                                                00010000D    103
     128       0    -123       4       0                               0D    104
     128     245                                                00010000D    105
     128       0    -123      17       0                               0D    106
     128     262                                                00010000D    107
     128       0    -123     189       0                               0D    108
     128     451                                                00010000D    109
     128       0    -123       4       0                               0D    110
     502     455                                                00010000D    111
     502                       3       1                               0D    112
     502     458                                                00010000D    113
     502                       4       1                               0D    114
     504     462                                                00010001D    115
     504                       2       1                               0D    116
     504     464                                                00010001D    117
     504                       3       1                               0D    118
     406     467                                                00000000D    119
     406                       1      15                               0D    120
     406     468                                                00000000D    121
     406                       1      15                               0D    122
     314     469                                                00000200D    123
     314                       2       0                               0D    124
     314     471                                                00000200D    125
     314                       2       0                               0D    126
186,5,1,0,0,1,119;                                                     1P      1
186,7,1,0,0,1,121;                                                     3P      2
514,4,9,1,11,1,13,1,15,1;                                              5P      3
514,6,17,1,19,1,21,1,23,1,25,1,27,1;                                   7P      4
510,91,1,1,29;                                                         9P      5
510,93,1,1,31;                                                        11P      6
510,95,2,1,33,35;                                                     13P      7
510,97,2,1,37,39;                                                     15P      8
510,99,1,1,41;                                                        17P      9
510,101,1,1,43;                                                       19P     10
510,103,1,1,45;                                                       21P     11
510,105,1,1,47;                                                       23P     12
510,107,1,1,49;                                                       25P     13
510,109,2,1,51,53;                                                    27P     14
508,4,0,115,1,0,0,0,115,2,1,0,0,115,3,0,0,0,115,2,0,0;                29P     15
508,6,0,115,4,1,0,0,115,5,1,0,0,115,6,0,0,0,115,7,0,0,0,115,5,0,      31P     16
0,0,115,8,1,0;                                                        31P     17
508,2,0,115,4,0,0,0,115,8,0,0;                                        33P     18
508,1,0,115,3,1,0;                                                    35P     19
508,2,0,115,6,1,0,0,115,7,1,0;                                        37P     20
508,1,0,115,1,1,0;                                                    39P     21
508,4,0,117,1,0,0,0,117,2,1,0,0,117,3,1,0,0,117,2,0,0;                41P     22
508,1,0,117,3,0,0;                                                    43P     23
508,2,0,117,4,0,0,0,117,5,0,0;                                        45P     24
508,6,0,117,6,0,0,0,117,7,0,0,0,117,8,1,0,0,117,5,1,0,0,117,4,1,      47P     25
0,0,117,8,0,0;                                                        47P     26
508,5,0,117,9,0,0,0,117,6,1,0,0,117,7,1,0,0,117,9,1,0,0,117,10,       49P     27
0,0;                                                                  49P     28
508,1,0,117,10,1,0;                                                   51P     29
508,1,0,117,1,1,0;                                                    53P     30
126,8,2,0,1,0,0,-3.14159265358979,-3.14159265358979,                  55P     31
-3.14159265358979,-1.5707963267949,-1.5707963267949,0.,0.,            55P     32
1.5707963267949,1.5707963267949,3.14159265358979,                     55P     33
3.14159265358979,3.14159265358979,1.,0.707106781186548,1.,            55P     34
0.707106781186548,1.,0.707106781186548,1.,0.707106781186548,1.,       55P     35
-3.175,-8.63365731638776D-32,3.88825358729285D-16,-3.175,             55P     36
-7.04991620636974D-16,3.175,1.94412679364642D-16,                     55P     37
-7.04991620636974D-16,3.175,3.175,-7.04991620636974D-16,3.175,        55P     38
3.175,0.,0.,3.175,7.04991620636974D-16,-3.175,                        55P     39
1.94412679364642D-16,7.04991620636974D-16,-3.175,-3.175,              55P     40
7.04991620636974D-16,-3.175,-3.175,8.63365731638776D-32,              55P     41
-3.88825358729285D-16,-3.14159265358979,3.14159265358979,0.,0.,       55P     42
0.;                                                                   55P     43
126,1,1,0,0,1,0,-2.22044604925031D-16,-2.22044604925031D-16,          57P     44
0.62992125984252,0.62992125984252,1.,1.,-3.175,                       57P     45
-7.04991620636974D-16,0.,-3.175,2.,0.,-2.22044604925031D-16,          57P     46
0.62992125984252,0.,0.,0.;                                            57P     47
126,8,2,0,1,0,0,-3.14159265358979,-3.14159265358979,                  59P     48
-3.14159265358979,-1.5707963267949,-1.5707963267949,0.,0.,            59P     49
1.5707963267949,1.5707963267949,3.14159265358979,                     59P     50
3.14159265358979,3.14159265358979,1.,0.707106781186548,1.,            59P     51
0.707106781186548,1.,0.707106781186548,1.,0.707106781186548,1.,       59P     52
-3.175,2.,-3.88825358729285D-16,-3.175,2.,-3.175,                     59P     53
1.94412679364642D-16,2.,-3.175,3.175,2.,-3.175,3.175,2.,0.,           59P     54
3.175,2.,3.175,1.94412679364642D-16,2.,3.175,-3.175,2.,3.175,         59P     55
-3.175,2.,3.88825358729285D-16,-3.14159265358979,                     59P     56
3.14159265358979,0.,0.,0.;                                            59P     57
126,6,2,0,0,0,0,-3.14159265358979,-3.14159265358979,                  61P     58
-3.14159265358979,-1.5707963267949,-1.5707963267949,                  61P     59
-1.48029736616688D-16,-1.48029736616688D-16,1.5707963267949,          61P     60
1.5707963267949,1.5707963267949,1.,0.707106781186548,1.,              61P     61
0.707106781186548,1.,0.707106781186547,1.,8.,2.,                      61P     62
2.40352408848583D-15,8.,2.,8.,-1.46957615897682D-15,2.,8.,-8.,        61P     63
2.,8.,-8.,2.,6.4860966346568D-16,-8.,2.,-8.,                          61P     64
-1.28649811974131D-15,2.,-8.,-3.14159265358979,1.5707963267949,       61P     65
0.,0.,0.;                                                             61P     66
126,2,2,0,0,0,0,-1.5707963267949,-1.5707963267949,                    63P     67
-1.5707963267949,0.,0.,0.,1.,0.707106781186547,1.,0.,2.,-8.,0.,       63P     68
2.,-10.,0.,2.22044604925031D-15,-10.,-1.5707963267949,0.,0.,0.,       63P     69
0.;                                                                   63P     70
126,6,2,0,0,0,0,0.,0.,0.,1.5707963267949,1.5707963267949,             65P     71
3.14159265358979,3.14159265358979,4.71238898038469,                   65P     72
4.71238898038469,4.71238898038469,1.,0.707106781186547,1.,            65P     73
0.707106781186548,1.,0.707106781186548,1.,10.,0.,0.,10.,              65P     74
-2.22044604925031D-15,10.,6.12323399573677D-16,                       65P     75
-2.22044604925031D-15,10.,-10.,-2.22044604925031D-15,10.,-10.,        65P     76
-2.71926214689378D-31,1.22464679914735D-15,-10.,                      65P     77
2.22044604925031D-15,-10.,-1.83697019872103D-15,                      65P     78
2.22044604925031D-15,-10.,0.,4.71238898038469,0.,0.,0.;               65P     79
126,2,2,0,0,0,0,4.71238898038469,4.71238898038469,                    67P     80
4.71238898038469,6.28318530717959,6.28318530717959,                   67P     81
6.28318530717959,1.,0.707106781186548,1.,-1.83697019872103D-15,       67P     82
2.22044604925031D-15,-10.,10.,2.22044604925031D-15,-10.,10.,          67P     83
5.43852429378756D-31,-2.44929359829471D-15,4.71238898038469,          67P     84
6.28318530717959,0.,0.,0.;                                            67P     85
126,2,2,0,0,0,0,1.5707963267949,1.5707963267949,1.5707963267949,      69P     86
3.14159265358979,3.14159265358979,3.14159265358979,1.,                69P     87
0.707106781186548,1.,-1.28649811974131D-15,2.,-8.,8.,2.,-8.,8.,       69P     88
2.,4.44089209850063D-16,1.5707963267949,3.14159265358979,0.,0.,       69P     89
0.;                                                                   69P     90
126,8,2,0,1,0,0,-3.14159265358979,-3.14159265358979,                  71P     91
-3.14159265358979,-1.5707963267949,-1.5707963267949,0.,0.,            71P     92
1.5707963267949,1.5707963267949,3.14159265358979,                     71P     93
3.14159265358979,3.14159265358979,1.,0.707106781186548,1.,            71P     94
0.707106781186548,1.,0.707106781186548,1.,0.707106781186548,1.,       71P     95
-3.175,2.00042583045026,3.88825358729285D-16,-3.175,                  71P     96
2.00042583045026,3.175,1.94412679364642D-16,2.00042583045026,         71P     97
3.175,3.175,2.00042583045026,3.175,3.175,2.00042583045026,0.,         71P     98
3.175,2.00042583045026,-3.175,1.94412679364642D-16,                   71P     99
2.00042583045026,-3.175,-3.175,2.00042583045026,-3.175,-3.175,        71P    100
2.00042583045026,-3.88825358729285D-16,-3.14159265358979,             71P    101
3.14159265358979,0.,0.,0.;                                            71P    102
126,1,1,0,0,1,0,0.630055379669372,0.630055379669372,                  73P    103
1.88976377952756,1.88976377952756,1.,1.,-3.175,2.00042583045026,      73P    104
0.,-3.175,6.,0.,0.630055379669372,1.88976377952756,0.,0.,0.;          73P    105
126,8,2,0,1,0,0,-3.14159265358979,-3.14159265358979,                  75P    106
-3.14159265358979,-1.5707963267949,-1.5707963267949,0.,0.,            75P    107
1.5707963267949,1.5707963267949,3.14159265358979,                     75P    108
3.14159265358979,3.14159265358979,1.,0.707106781186548,1.,            75P    109
0.707106781186548,1.,0.707106781186548,1.,0.707106781186548,1.,       75P    110
-3.175,6.,3.88825358729285D-16,-3.175,6.,3.175,                       75P    111
1.94412679364642D-16,6.,3.175,3.175,6.,3.175,3.175,6.,0.,3.175,       75P    112
6.,-3.175,1.94412679364642D-16,6.,-3.175,-3.175,6.,-3.175,            75P    113
-3.175,6.,-3.88825358729285D-16,-3.14159265358979,                    75P    114
3.14159265358979,0.,0.,0.;                                            75P    115
126,4,2,0,0,0,0,-1.5707963267949,-1.5707963267949,                    77P    116
-1.5707963267949,0.,0.,1.5707963267949,1.5707963267949,               77P    117
1.5707963267949,1.,0.707106781186547,1.,0.707106781186547,1.,         77P    118
1.53080849893419D-16,42.0004258304503,-2.5,2.5,42.0004258304503,      77P    119
-2.5,2.5,42.0004258304503,1.22464679914735D-15,2.5,                   77P    120
42.0004258304503,2.5,1.53080849893419D-16,42.0004258304503,2.5,       77P    121
-1.5707963267949,1.5707963267949,0.,0.,0.;                            77P    122
126,4,2,0,0,0,0,1.5707963267949,1.5707963267949,1.5707963267949,      79P    123
3.14159265358979,3.14159265358979,4.71238898038469,                   79P    124
4.71238898038469,4.71238898038469,1.,0.707106781186547,1.,            79P    125
0.707106781186548,1.,1.53080849893419D-16,42.0004258304503,2.5,       79P    126
-2.5,42.0004258304503,2.5,-2.5,42.0004258304503,                      79P    127
1.53080849893419D-15,-2.5,42.0004258304503,-2.5,                      79P    128
-4.59242549680257D-16,42.0004258304503,-2.5,1.5707963267949,          79P    129
4.71238898038469,0.,0.,0.;                                            79P    130
126,4,2,0,0,0,0,-1.5707963267949,-1.5707963267949,                    81P    131
-1.5707963267949,0.,0.,1.5707963267949,1.5707963267949,               81P    132
1.5707963267949,1.,0.707106781186547,1.,0.707106781186547,1.,         81P    133
1.53080849893419D-16,12.0004258304503,-2.5,2.5,12.0004258304503,      81P    134
-2.5,2.5,12.0004258304503,1.22464679914735D-15,2.5,                   81P    135
12.0004258304503,2.5,1.53080849893419D-16,12.0004258304503,2.5,       81P    136
-1.5707963267949,1.5707963267949,0.,0.,0.;                            81P    137
126,4,2,0,0,0,0,1.5707963267949,1.5707963267949,1.5707963267949,      83P    138
3.14159265358979,3.14159265358979,4.71238898038469,                   83P    139
4.71238898038469,4.71238898038469,1.,0.707106781186547,1.,            83P    140
0.707106781186548,1.,1.53080849893419D-16,12.0004258304503,2.5,       83P    141
-2.5,12.0004258304503,2.5,-2.5,12.0004258304503,                      83P    142
1.53080849893419D-15,-2.5,12.0004258304503,-2.5,                      83P    143
-4.59242549680257D-16,12.0004258304503,-2.5,1.5707963267949,          83P    144
4.71238898038469,0.,0.,0.;                                            83P    145
126,1,1,0,0,1,0,-6.,-6.,6.,6.,1.,1.,0.,12.0004258304503,2.5,0.,       85P    146
42.0004258304503,2.5,-6.,6.,0.,0.,0.;                                 85P    147
126,19,5,0,0,0,0,0.,0.,0.,0.,0.,0.,0.0666666666666667,                87P    148
0.133333333333333,0.2,0.266666666666667,0.333333333333333,0.4,        87P    149
0.466666666666667,0.533333333333333,0.6,0.666666666666667,            87P    150
0.733333333333333,0.8,0.866666666666667,0.933333333333333,1.,1.,      87P    151
1.,1.,1.,1.,1.,1.,1.,1.,1.,1.,1.,1.,1.,1.,1.,1.,1.,1.,1.,1.,1.,       87P    152
1.,1.,1.,0.,12.0004258304503,-2.5,0.,11.7894982608313,-2.5,0.,        87P    153
11.3672447530505,-2.504550336564,0.,10.732669532891,                  87P    154
-2.5250267270205,0.,9.88758757447283,-2.57845290559491,0.,            87P    155
8.85280072084846,-2.68253229917732,0.,7.86538834798867,               87P    156
-2.8167514744525,0.,6.95166832056116,-2.97536172271118,0.,            87P    157
6.13315156193587,-3.15619410794054,0.,5.4204177430628,                87P    158
-3.36309535521273,0.,4.80798575172482,-3.60774630295276,0.,           87P    159
4.28075390074829,-3.90601513427513,0.,3.81903634216476,               87P    160
-4.27465357434454,0.,3.40337011733978,-4.72805554980716,0.,           87P    161
3.019854006798,-5.27393165193889,0.,2.66005150169736,                 87P    162
-5.91458695706781,0.,2.38752399420244,-6.50252088649945,0.,           87P    163
2.19095459676703,-6.98516311448204,0.,2.06336007072843,               87P    164
-7.32532158141544,0.,2.00042583045026,-7.5,0.,1.,0.,0.,0.;            87P    165
126,8,2,0,1,0,0,-1.5707963267949,-1.5707963267949,                    89P    166
-1.5707963267949,0.,0.,1.5707963267949,1.5707963267949,               89P    167
3.14159265358979,3.14159265358979,4.71238898038469,                   89P    168
4.71238898038469,4.71238898038469,1.,0.707106781186548,1.,            89P    169
0.707106781186548,1.,0.707106781186548,1.,0.707106781186548,1.,       89P    170
4.59242549680258D-16,2.00042583045026,-7.5,7.5,2.00042583045026,      89P    171
-7.5,7.5,2.00042583045026,1.22464679914735D-15,7.5,                   89P    172
2.00042583045026,7.5,4.59242549680258D-16,2.00042583045026,7.5,       89P    173
-7.5,2.00042583045026,7.5,-7.5,2.00042583045026,                      89P    174
2.14313189850787D-15,-7.5,2.00042583045026,-7.5,                      89P    175
-1.37772764904077D-15,2.00042583045026,-7.5,-1.5707963267949,         89P    176
4.71238898038469,0.,0.,0.;                                            89P    177
128,1,8,1,2,0,1,0,0,1,-2.22044604925031D-16,                          91P    178
-2.22044604925031D-16,0.62992125984252,0.62992125984252,              91P    179
-3.14159265358979,-3.14159265358979,-3.14159265358979,                91P    180
-1.5707963267949,-1.5707963267949,0.,0.,1.5707963267949,              91P    181
1.5707963267949,3.14159265358979,3.14159265358979,                    91P    182
3.14159265358979,1.,1.,0.707106781186548,0.707106781186548,1.,        91P    183
1.,0.707106781186548,0.707106781186548,1.,1.,0.707106781186548,       91P    184
0.707106781186548,1.,1.,0.707106781186548,0.707106781186548,1.,       91P    185
1.,-3.175,-7.04991620636974D-16,0.,-3.175,2.,0.,-3.175,               91P    186
-7.04991620636974D-16,3.175,-3.175,2.,3.175,0.,                       91P    187
-7.04991620636974D-16,3.175,0.,2.,3.175,3.175,                        91P    188
-7.04991620636974D-16,3.175,3.175,2.,3.175,3.175,                     91P    189
-7.04991620636974D-16,0.,3.175,2.,0.,3.175,                           91P    190
-7.04991620636974D-16,-3.175,3.175,2.,-3.175,0.,                      91P    191
-7.04991620636974D-16,-3.175,0.,2.,-3.175,-3.175,                     91P    192
-7.04991620636974D-16,-3.175,-3.175,2.,-3.175,-3.175,                 91P    193
-7.04991620636974D-16,0.,-3.175,2.,0.,-2.22044604925031D-16,          91P    194
0.62992125984252,-3.14159265358979,3.14159265358979;                  91P    195
128,2,8,2,2,0,1,0,0,1,0.,0.,0.,1.5707963267949,1.5707963267949,       93P    196
1.5707963267949,-3.14159265358979,-3.14159265358979,                  93P    197
-3.14159265358979,-1.5707963267949,-1.5707963267949,0.,0.,            93P    198
1.5707963267949,1.5707963267949,3.14159265358979,                     93P    199
3.14159265358979,3.14159265358979,1.,0.707106781186547,1.,            93P    200
0.707106781186548,0.5,0.707106781186548,1.,0.707106781186547,1.,      93P    201
0.707106781186548,0.5,0.707106781186548,1.,0.707106781186547,1.,      93P    202
0.707106781186548,0.5,0.707106781186548,1.,0.707106781186547,1.,      93P    203
0.707106781186548,0.5,0.707106781186548,1.,0.707106781186547,1.,      93P    204
0.,2.,-8.,0.,2.,-10.,0.,2.22044604925031D-15,-10.,-8.,2.,-8.,         93P    205
-10.,2.,-10.,-10.,2.22044604925031D-15,-10.,-8.,2.,                   93P    206
4.44089209850063D-16,-10.,2.,4.44089209850063D-16,-10.,0.,0.,         93P    207
-8.,2.,8.,-10.,2.,10.,-10.,-2.22044604925031D-15,10.,0.,2.,8.,        93P    208
0.,2.,10.,0.,-2.22044604925031D-15,10.,8.,2.,8.,10.,2.,10.,10.,       93P    209
-2.22044604925031D-15,10.,8.,2.,4.44089209850063D-16,10.,2.,          93P    210
4.44089209850063D-16,10.,0.,0.,8.,2.,-8.,10.,2.,-10.,10.,             93P    211
2.22044604925031D-15,-10.,0.,2.,-8.,0.,2.,-10.,0.,                    93P    212
2.22044604925031D-15,-10.,0.,1.5707963267949,-3.14159265358979,       93P    213
3.14159265358979;                                                     93P    214
128,1,1,1,1,0,0,1,0,0,-0.8,-0.8,0.8,0.8,-0.8,-0.8,0.8,0.8,1.,1.,      95P    215
1.,1.,-8.,2.,8.,8.,2.,8.,-8.,2.,-8.,8.,2.,-8.,-0.8,0.8,-0.8,0.8;      95P    216
128,1,1,1,1,0,0,1,0,0,-1.,-1.,1.,1.,-1.,-1.,1.,1.,1.,1.,1.,1.,        97P    217
10.,-2.22044604925031D-15,10.,-10.,-2.22044604925031D-15,10.,         97P    218
10.,2.22044604925031D-15,-10.,-10.,2.22044604925031D-15,-10.,         97P    219
-1.,1.,-1.,1.;                                                        97P    220
128,1,8,1,2,0,1,0,0,1,0.630055379669372,0.630055379669372,            99P    221
1.88976377952756,1.88976377952756,-3.14159265358979,                  99P    222
-3.14159265358979,-3.14159265358979,-1.5707963267949,                 99P    223
-1.5707963267949,0.,0.,1.5707963267949,1.5707963267949,               99P    224
3.14159265358979,3.14159265358979,3.14159265358979,1.,1.,             99P    225
0.707106781186548,0.707106781186548,1.,1.,0.707106781186548,          99P    226
0.707106781186548,1.,1.,0.707106781186548,0.707106781186548,1.,       99P    227
1.,0.707106781186548,0.707106781186548,1.,1.,-3.175,                  99P    228
2.00042583045026,0.,-3.175,6.,0.,-3.175,2.00042583045026,3.175,       99P    229
-3.175,6.,3.175,0.,2.00042583045026,3.175,0.,6.,3.175,3.175,          99P    230
2.00042583045026,3.175,3.175,6.,3.175,3.175,2.00042583045026,0.,      99P    231
3.175,6.,0.,3.175,2.00042583045026,-3.175,3.175,6.,-3.175,0.,         99P    232
2.00042583045026,-3.175,0.,6.,-3.175,-3.175,2.00042583045026,         99P    233
-3.175,-3.175,6.,-3.175,-3.175,2.00042583045026,0.,-3.175,6.,0.,      99P    234
0.630055379669372,1.88976377952756,-3.14159265358979,                 99P    235
3.14159265358979;                                                     99P    236
128,1,1,1,1,0,0,1,0,0,-0.3175,-0.3175,0.3175,0.3175,-0.3175,         101P    237
-0.3175,0.3175,0.3175,1.,1.,1.,1.,3.175,6.,3.175,-3.175,6.,          101P    238
3.175,3.175,6.,-3.175,-3.175,6.,-3.175,-0.3175,0.3175,-0.3175,       101P    239
0.3175;                                                              101P    240
128,1,1,1,1,0,0,1,0,0,0.,0.,0.5,0.5,-0.25,-0.25,0.25,0.25,1.,1.,     103P    241
1.,1.,-2.5,42.0004258304503,-2.5,-2.5,42.0004258304503,2.5,2.5,      103P    242
42.0004258304503,-2.5,2.5,42.0004258304503,2.5,0.,0.5,-0.25,         103P    243
0.25;                                                                103P    244
128,1,8,1,2,0,1,0,0,1,-6.,-6.,6.,6.,-3.14159265358979,               105P    245
-3.14159265358979,-3.14159265358979,-1.5707963267949,                105P    246
-1.5707963267949,0.,0.,1.5707963267949,1.5707963267949,              105P    247
3.14159265358979,3.14159265358979,3.14159265358979,1.,1.,            105P    248
0.707106781186548,0.707106781186548,1.,1.,0.707106781186548,         105P    249
0.707106781186548,1.,1.,0.707106781186548,0.707106781186548,1.,      105P    250
1.,0.707106781186548,0.707106781186548,1.,1.,0.,                     105P    251
12.0004258304503,2.5,0.,42.0004258304503,2.5,-2.5,                   105P    252
12.0004258304503,2.5,-2.5,42.0004258304503,2.5,-2.5,                 105P    253
12.0004258304503,1.22464679914735D-15,-2.5,42.0004258304503,         105P    254
1.22464679914735D-15,-2.5,12.0004258304503,-2.5,-2.5,                105P    255
42.0004258304503,-2.5,0.,12.0004258304503,-2.5,0.,                   105P    256
42.0004258304503,-2.5,2.5,12.0004258304503,-2.5,2.5,                 105P    257
42.0004258304503,-2.5,2.5,12.0004258304503,1.22464679914735D-15,     105P    258
2.5,42.0004258304503,1.22464679914735D-15,2.5,12.0004258304503,      105P    259
2.5,2.5,42.0004258304503,2.5,0.,12.0004258304503,2.5,0.,             105P    260
42.0004258304503,2.5,-6.,6.,-3.14159265358979,3.14159265358979;      105P    261
128,19,8,5,2,0,1,0,0,1,-1.,-1.,-1.,-1.,-1.,-1.,                      107P    262
-0.933333333333333,-0.866666666666667,-0.8,-0.733333333333333,       107P    263
-0.666666666666667,-0.6,-0.533333333333333,-0.466666666666667,       107P    264
-0.4,-0.333333333333333,-0.266666666666667,-0.2,                     107P    265
-0.133333333333333,-0.0666666666666667,0.,0.,0.,0.,0.,0.,0.,0.,      107P    266
0.,1.5707963267949,1.5707963267949,3.14159265358979,                 107P    267
3.14159265358979,4.71238898038469,4.71238898038469,                  107P    268
6.28318530717959,6.28318530717959,6.28318530717959,1.,1.,1.,1.,      107P    269
1.,1.,1.,1.,1.,1.,1.,1.,1.,1.,1.,1.,1.,1.,1.,1.,                     107P    270
0.707106781186548,0.707106781186548,0.707106781186548,               107P    271
0.707106781186548,0.707106781186548,0.707106781186548,               107P    272
0.707106781186548,0.707106781186548,0.707106781186548,               107P    273
0.707106781186548,0.707106781186548,0.707106781186548,               107P    274
0.707106781186548,0.707106781186548,0.707106781186548,               107P    275
0.707106781186548,0.707106781186548,0.707106781186548,               107P    276
0.707106781186548,0.707106781186548,1.,1.,1.,1.,1.,1.,1.,1.,1.,      107P    277
1.,1.,1.,1.,1.,1.,1.,1.,1.,1.,1.,0.707106781186548,                  107P    278
0.707106781186548,0.707106781186548,0.707106781186548,               107P    279
0.707106781186548,0.707106781186548,0.707106781186548,               107P    280
0.707106781186548,0.707106781186548,0.707106781186548,               107P    281
0.707106781186548,0.707106781186548,0.707106781186548,               107P    282
0.707106781186548,0.707106781186548,0.707106781186548,               107P    283
0.707106781186548,0.707106781186548,0.707106781186548,               107P    284
0.707106781186548,1.,1.,1.,1.,1.,1.,1.,1.,1.,1.,1.,1.,1.,1.,1.,      107P    285
1.,1.,1.,1.,1.,0.707106781186548,0.707106781186548,                  107P    286
0.707106781186548,0.707106781186548,0.707106781186548,               107P    287
0.707106781186548,0.707106781186548,0.707106781186548,               107P    288
0.707106781186548,0.707106781186548,0.707106781186548,               107P    289
0.707106781186548,0.707106781186548,0.707106781186548,               107P    290
0.707106781186548,0.707106781186548,0.707106781186548,               107P    291
0.707106781186548,0.707106781186548,0.707106781186548,1.,1.,1.,      107P    292
1.,1.,1.,1.,1.,1.,1.,1.,1.,1.,1.,1.,1.,1.,1.,1.,1.,                  107P    293
0.707106781186548,0.707106781186548,0.707106781186548,               107P    294
0.707106781186548,0.707106781186548,0.707106781186548,               107P    295
0.707106781186548,0.707106781186548,0.707106781186548,               107P    296
0.707106781186548,0.707106781186548,0.707106781186548,               107P    297
0.707106781186548,0.707106781186548,0.707106781186548,               107P    298
0.707106781186548,0.707106781186548,0.707106781186548,               107P    299
0.707106781186548,0.707106781186548,1.,1.,1.,1.,1.,1.,1.,1.,1.,      107P    300
1.,1.,1.,1.,1.,1.,1.,1.,1.,1.,1.,0.,2.00042583045026,-7.5,0.,        107P    301
2.06336007072843,-7.32532158141544,0.,2.19095459676703,              107P    302
-6.98516311448204,0.,2.38752399420244,-6.50252088649945,0.,          107P    303
2.66005150169736,-5.91458695706781,0.,3.019854006798,                107P    304
-5.27393165193889,0.,3.40337011733978,-4.72805554980716,0.,          107P    305
3.81903634216476,-4.27465357434454,0.,4.28075390074829,              107P    306
-3.90601513427513,0.,4.80798575172482,-3.60774630295276,0.,          107P    307
5.4204177430628,-3.36309535521273,0.,6.13315156193587,               107P    308
-3.15619410794054,0.,6.95166832056116,-2.97536172271118,0.,          107P    309
7.86538834798867,-2.8167514744525,0.,8.85280072084846,               107P    310
-2.68253229917732,0.,9.88758757447283,-2.57845290559491,0.,          107P    311
10.732669532891,-2.5250267270205,0.,11.3672447530505,                107P    312
-2.504550336564,0.,11.7894982608313,-2.5,0.,12.0004258304503,        107P    313
-2.5,7.5,2.00042583045026,-7.5,7.32532158141544,                     107P    314
2.06336007072843,-7.32532158141544,6.98516311448204,                 107P    315
2.19095459676703,-6.98516311448204,6.50252088649945,                 107P    316
2.38752399420244,-6.50252088649945,5.91458695706781,                 107P    317
2.66005150169736,-5.91458695706781,5.27393165193889,                 107P    318
3.019854006798,-5.27393165193889,4.72805554980716,                   107P    319
3.40337011733978,-4.72805554980716,4.27465357434454,                 107P    320
3.81903634216476,-4.27465357434454,3.90601513427513,                 107P    321
4.28075390074829,-3.90601513427513,3.60774630295276,                 107P    322
4.80798575172482,-3.60774630295276,3.36309535521273,                 107P    323
5.4204177430628,-3.36309535521273,3.15619410794055,                  107P    324
6.13315156193587,-3.15619410794054,2.97536172271118,                 107P    325
6.95166832056116,-2.97536172271118,2.8167514744525,                  107P    326
7.86538834798867,-2.8167514744525,2.68253229917732,                  107P    327
8.85280072084846,-2.68253229917732,2.57845290559491,                 107P    328
9.88758757447283,-2.57845290559491,2.5250267270205,                  107P    329
10.732669532891,-2.5250267270205,2.504550336564,                     107P    330
11.3672447530505,-2.504550336564,2.5,11.7894982608313,-2.5,2.5,      107P    331
12.0004258304503,-2.5,7.5,2.00042583045026,1.22464679914735D-15,     107P    332
7.32532158141544,2.06336007072843,1.22464679914735D-15,              107P    333
6.98516311448204,2.19095459676703,1.22464679914735D-15,              107P    334
6.50252088649945,2.38752399420244,1.22464679914735D-15,              107P    335
5.91458695706781,2.66005150169736,1.22464679914735D-15,              107P    336
5.27393165193889,3.019854006798,1.22464679914735D-15,                107P    337
4.72805554980716,3.40337011733978,1.22464679914735D-15,              107P    338
4.27465357434454,3.81903634216476,1.22464679914735D-15,              107P    339
3.90601513427513,4.28075390074829,1.22464679914735D-15,              107P    340
3.60774630295276,4.80798575172482,1.22464679914735D-15,              107P    341
3.36309535521273,5.4204177430628,1.22464679914735D-15,               107P    342
3.15619410794055,6.13315156193587,1.22464679914735D-15,              107P    343
2.97536172271118,6.95166832056116,1.22464679914735D-15,              107P    344
2.8167514744525,7.86538834798867,1.22464679914735D-15,               107P    345
2.68253229917732,8.85280072084846,1.22464679914735D-15,              107P    346
2.57845290559491,9.88758757447283,1.22464679914735D-15,              107P    347
2.5250267270205,10.732669532891,1.22464679914735D-15,                107P    348
2.504550336564,11.3672447530505,1.22464679914735D-15,2.5,            107P    349
11.7894982608313,1.22464679914735D-15,2.5,12.0004258304503,          107P    350
1.22464679914735D-15,7.5,2.00042583045026,7.5,7.32532158141544,      107P    351
2.06336007072843,7.32532158141544,6.98516311448204,                  107P    352
2.19095459676703,6.98516311448204,6.50252088649945,                  107P    353
2.38752399420244,6.50252088649945,5.91458695706781,                  107P    354
2.66005150169736,5.91458695706781,5.27393165193889,                  107P    355
3.019854006798,5.27393165193889,4.72805554980716,                    107P    356
3.40337011733978,4.72805554980716,4.27465357434454,                  107P    357
3.81903634216476,4.27465357434454,3.90601513427513,                  107P    358
4.28075390074829,3.90601513427513,3.60774630295276,                  107P    359
4.80798575172482,3.60774630295276,3.36309535521273,                  107P    360
5.4204177430628,3.36309535521273,3.15619410794055,                   107P    361
6.13315156193587,3.15619410794055,2.97536172271118,                  107P    362
6.95166832056116,2.97536172271118,2.8167514744525,                   107P    363
7.86538834798867,2.8167514744525,2.68253229917732,                   107P    364
8.85280072084846,2.68253229917732,2.57845290559491,                  107P    365
9.88758757447283,2.57845290559491,2.5250267270205,                   107P    366
10.732669532891,2.52502672702051,2.504550336564,                     107P    367
11.3672447530505,2.504550336564,2.5,11.7894982608313,2.5,2.5,        107P    368
12.0004258304503,2.5,0.,2.00042583045026,7.5,0.,                     107P    369
2.06336007072843,7.32532158141544,0.,2.19095459676703,               107P    370
6.98516311448204,0.,2.38752399420244,6.50252088649945,0.,            107P    371
2.66005150169736,5.91458695706781,0.,3.019854006798,                 107P    372
5.27393165193889,0.,3.40337011733978,4.72805554980716,0.,            107P    373
3.81903634216476,4.27465357434454,0.,4.28075390074829,               107P    374
3.90601513427513,0.,4.80798575172482,3.60774630295276,0.,            107P    375
5.4204177430628,3.36309535521273,0.,6.13315156193587,                107P    376
3.15619410794055,0.,6.95166832056116,2.97536172271119,0.,            107P    377
7.86538834798867,2.8167514744525,0.,8.85280072084846,                107P    378
2.68253229917732,0.,9.88758757447283,2.57845290559491,0.,            107P    379
10.732669532891,2.52502672702051,0.,11.3672447530505,                107P    380
2.504550336564,0.,11.7894982608313,2.5,0.,12.0004258304503,2.5,      107P    381
-7.5,2.00042583045026,7.5,-7.32532158141544,2.06336007072843,        107P    382
7.32532158141544,-6.98516311448204,2.19095459676703,                 107P    383
6.98516311448204,-6.50252088649945,2.38752399420244,                 107P    384
6.50252088649945,-5.91458695706781,2.66005150169736,                 107P    385
5.91458695706781,-5.27393165193889,3.019854006798,                   107P    386
5.27393165193889,-4.72805554980716,3.40337011733978,                 107P    387
4.72805554980716,-4.27465357434454,3.81903634216476,                 107P    388
4.27465357434454,-3.90601513427513,4.28075390074829,                 107P    389
3.90601513427513,-3.60774630295276,4.80798575172482,                 107P    390
3.60774630295276,-3.36309535521273,5.4204177430628,                  107P    391
3.36309535521273,-3.15619410794055,6.13315156193587,                 107P    392
3.15619410794055,-2.97536172271118,6.95166832056116,                 107P    393
2.97536172271118,-2.8167514744525,7.86538834798867,                  107P    394
2.8167514744525,-2.68253229917732,8.85280072084846,                  107P    395
2.68253229917732,-2.57845290559491,9.88758757447283,                 107P    396
2.57845290559491,-2.5250267270205,10.732669532891,                   107P    397
2.52502672702051,-2.504550336564,11.3672447530505,                   107P    398
2.504550336564,-2.5,11.7894982608313,2.5,-2.5,12.0004258304503,      107P    399
2.5,-7.5,2.00042583045026,1.22464679914735D-15,                      107P    400
-7.32532158141544,2.06336007072843,1.22464679914735D-15,             107P    401
-6.98516311448204,2.19095459676703,1.22464679914735D-15,             107P    402
-6.50252088649945,2.38752399420244,1.22464679914735D-15,             107P    403
-5.91458695706781,2.66005150169736,1.22464679914735D-15,             107P    404
-5.27393165193889,3.019854006798,1.22464679914735D-15,               107P    405
-4.72805554980716,3.40337011733978,1.22464679914735D-15,             107P    406
-4.27465357434454,3.81903634216476,1.22464679914735D-15,             107P    407
-3.90601513427513,4.28075390074829,1.22464679914735D-15,             107P    408
-3.60774630295276,4.80798575172482,1.22464679914735D-15,             107P    409
-3.36309535521273,5.4204177430628,1.22464679914735D-15,              107P    410
-3.15619410794055,6.13315156193587,1.22464679914735D-15,             107P    411
-2.97536172271118,6.95166832056116,1.22464679914735D-15,             107P    412
-2.8167514744525,7.86538834798867,1.22464679914735D-15,              107P    413
-2.68253229917732,8.85280072084846,1.22464679914735D-15,             107P    414
-2.57845290559491,9.88758757447283,1.22464679914735D-15,             107P    415
-2.5250267270205,10.732669532891,1.22464679914735D-15,               107P    416
-2.504550336564,11.3672447530505,1.22464679914735D-15,-2.5,          107P    417
11.7894982608313,1.22464679914735D-15,-2.5,12.0004258304503,         107P    418
1.22464679914735D-15,-7.5,2.00042583045026,-7.5,                     107P    419
-7.32532158141544,2.06336007072843,-7.32532158141544,                107P    420
-6.98516311448204,2.19095459676703,-6.98516311448204,                107P    421
-6.50252088649945,2.38752399420244,-6.50252088649945,                107P    422
-5.91458695706781,2.66005150169736,-5.91458695706781,                107P    423
-5.27393165193889,3.019854006798,-5.27393165193889,                  107P    424
-4.72805554980716,3.40337011733978,-4.72805554980716,                107P    425
-4.27465357434454,3.81903634216476,-4.27465357434454,                107P    426
-3.90601513427513,4.28075390074829,-3.90601513427513,                107P    427
-3.60774630295276,4.80798575172482,-3.60774630295276,                107P    428
-3.36309535521273,5.4204177430628,-3.36309535521273,                 107P    429
-3.15619410794055,6.13315156193587,-3.15619410794054,                107P    430
-2.97536172271118,6.95166832056116,-2.97536172271118,                107P    431
-2.8167514744525,7.86538834798867,-2.8167514744525,                  107P    432
-2.68253229917732,8.85280072084846,-2.68253229917732,                107P    433
-2.57845290559491,9.88758757447283,-2.57845290559491,                107P    434
-2.5250267270205,10.732669532891,-2.5250267270205,                   107P    435
-2.504550336564,11.3672447530505,-2.504550336564,-2.5,               107P    436
11.7894982608313,-2.5,-2.5,12.0004258304503,-2.5,0.,                 107P    437
2.00042583045026,-7.5,0.,2.06336007072843,-7.32532158141544,0.,      107P    438
2.19095459676703,-6.98516311448204,0.,2.38752399420244,              107P    439
-6.50252088649945,0.,2.66005150169736,-5.91458695706781,0.,          107P    440
3.019854006798,-5.27393165193889,0.,3.40337011733978,                107P    441
-4.72805554980716,0.,3.81903634216476,-4.27465357434454,0.,          107P    442
4.28075390074829,-3.90601513427513,0.,4.80798575172482,              107P    443
-3.60774630295276,0.,5.4204177430628,-3.36309535521273,0.,           107P    444
6.13315156193587,-3.15619410794054,0.,6.95166832056116,              107P    445
-2.97536172271118,0.,7.86538834798867,-2.8167514744525,0.,           107P    446
8.85280072084846,-2.68253229917732,0.,9.88758757447283,              107P    447
-2.57845290559491,0.,10.732669532891,-2.5250267270205,0.,            107P    448
11.3672447530505,-2.504550336564,0.,11.7894982608313,-2.5,0.,        107P    449
12.0004258304503,-2.5,-1.,0.,0.,6.28318530717959;                    107P    450
128,1,1,1,1,0,0,1,0,0,-0.75,-0.75,0.75,0.75,-0.75,-0.75,0.75,        109P    451
0.75,1.,1.,1.,1.,-7.5,2.00042583045026,7.5,-7.5,                     109P    452
2.00042583045026,-7.5,7.5,2.00042583045026,7.5,7.5,                  109P    453
2.00042583045026,-7.5,-0.75,0.75,-0.75,0.75;                         109P    454
502,6,-3.175,0.,3.88825358729285D-16,-3.175,2.,                      111P    455
-3.88825358729285D-16,8.,2.,2.40352408848583D-15,0.,2.,-8.,0.,       111P    456
2.22044604925031D-15,-10.,10.,0.,0.;                                 111P    457
502,7,-3.175,2.00042583045026,3.88825358729285D-16,-3.175,6.,        113P    458
3.88825358729285D-16,0.,42.0004258304503,-2.5,0.,                    113P    459
42.0004258304503,2.5,0.,12.0004258304503,-2.5,0.,                    113P    460
12.0004258304503,2.5,0.,2.00042583045026,-7.5;                       113P    461
504,8,55,111,1,111,1,57,111,1,111,2,59,111,2,111,2,61,111,3,111,     115P    462
4,63,111,4,111,5,65,111,6,111,5,67,111,5,111,6,69,111,4,111,3;       115P    463
504,10,71,113,1,113,1,73,113,1,113,2,75,113,2,113,2,77,113,3,        117P    464
113,4,79,113,4,113,3,81,113,5,113,6,83,113,6,113,5,85,113,6,113,     117P    465
4,87,113,5,113,7,89,113,7,113,7;                                     117P    466
406,1,5HBody1;                                                       119P    467
406,1,5HBody2;                                                       121P    468
314,90.9803921568627,67.843137254902,13.7254901960784,37HPlastic     123P    469
 - Translucent Glossy (Yellow);                                      123P    470
314,62.7450980392157,62.7450980392157,62.7450980392157,13HSteel      125P    471
- Satin;                                                             125P    472
S      1G      3D    126P    472                                        T      1
