<?xml version="1.0" standalone="yes"?>

<svg version="1.1" viewBox="0.0 0.0 960.0 720.0" fill="none" stroke="none" stroke-linecap="square" stroke-miterlimit="10" xmlns="http://www.w3.org/2000/svg" xmlns:xlink="http://www.w3.org/1999/xlink"><clipPath id="p.0"><path d="m0 0l960.0 0l0 720.0l-960.0 0l0 -720.0z" clip-rule="nonzero"></path></clipPath><g clip-path="url(#p.0)"><path fill="#000000" fill-opacity="0.0" d="m0 0l960.0 0l0 720.0l-960.0 0z" fill-rule="nonzero"></path><path fill="#000000" fill-opacity="0.0" d="m5.1601048 615.7192l952.25195 3.8740234" fill-rule="nonzero"></path><path stroke="#000000" stroke-width="2.0" stroke-linejoin="round" stroke-linecap="butt" d="m5.1601048 615.7192l952.25195 3.8740234" fill-rule="nonzero"></path><path fill="#000000" fill-opacity="0.0" d="m108.385826 112.49344l369.03937 503.21262" fill-rule="nonzero"></path><path stroke="#000000" stroke-width="2.0" stroke-linejoin="round" stroke-linecap="butt" d="m108.385826 112.49344l369.03937 503.21262" fill-rule="nonzero"></path><path fill="#000000" fill-opacity="0.0" d="m172.38583 72.49344l369.03934 503.21262" fill-rule="nonzero"></path><path stroke="#000000" stroke-width="2.0" stroke-linejoin="round" stroke-linecap="butt" d="m172.38583 72.49344l369.03934 503.21262" fill-rule="nonzero"></path><path fill="#000000" fill-opacity="0.0" d="m108.385826 113.78215l61.921257 -42.582672" fill-rule="nonzero"></path><path stroke="#000000" stroke-width="2.0" stroke-linejoin="round" stroke-linecap="butt" stroke-dasharray="2.0,6.0" d="m108.385826 113.78215l61.921257 -42.582672" fill-rule="nonzero"></path><path fill="#000000" fill-opacity="0.0" d="m477.4252 618.2887l61.921234 -42.58264" fill-rule="nonzero"></path><path stroke="#000000" stroke-width="2.0" stroke-linejoin="round" stroke-linecap="butt" stroke-dasharray="2.0,6.0" d="m477.4252 618.2887l61.921234 -42.58264" fill-rule="nonzero"></path><path fill="#9900ff" d="m100.64567 76.485565l0 0c0 -7.905937 6.930771 -14.3149605 15.480316 -14.3149605l0 0c8.549545 0 15.480309 6.4090233 15.480309 14.3149605l0 0c0 7.905937 -6.9307632 14.314957 -15.480309 14.314957l0 0c-8.549545 0 -15.480316 -6.4090195 -15.480316 -14.314957z" fill-rule="nonzero"></path><path stroke="#9900ff" stroke-width="2.0" stroke-linejoin="round" stroke-linecap="butt" d="m100.64567 76.485565l0 0c0 -7.905937 6.930771 -14.3149605 15.480316 -14.3149605l0 0c8.549545 0 15.480309 6.4090233 15.480309 14.3149605l0 0c0 7.905937 -6.9307632 14.314957 -15.480309 14.314957l0 0c-8.549545 0 -15.480316 -6.4090195 -15.480316 -14.314957z" fill-rule="nonzero"></path><path fill="#000000" fill-opacity="0.0" d="m384.66666 609.2761l0 0c1.5140381 -26.163574 14.480255 -50.388794 35.53293 -66.38733l55.924652 71.53168z" fill-rule="nonzero"></path><path fill="#000000" fill-opacity="0.0" d="m384.66666 609.2761l0 0c1.5140381 -26.163574 14.480255 -50.388794 35.53293 -66.38733" fill-rule="nonzero"></path><path stroke="#980000" stroke-width="2.0" stroke-linejoin="round" stroke-linecap="butt" d="m384.66666 609.2761l0 0c1.5140381 -26.163574 14.480255 -50.388794 35.53293 -66.38733" fill-rule="nonzero"></path><path fill="#000000" fill-opacity="0.0" d="m338.0656 531.8478l41.29135 0l0 51.62201l-41.29135 0z" fill-rule="nonzero"></path><path fill="#000000" d="m352.11752 560.6666q0 -5.515625 2.703125 -10.625q2.703125 -5.109375 7.15625 -5.109375q2.890625 0 4.625 1.953125q1.734375 1.9375 1.734375 6.0625q0 5.4375 -2.65625 10.5625q-2.65625 5.109375 -7.171875 5.109375q-2.875 0 -4.640625 -2.109375q-1.75 -2.109375 -1.75 -5.84375zm5.4375 -5.796875l6.125 0q0.28125 -1.96875 0.28125 -3.015625q0 -3.28125 -2.1875 -3.28125q-2.65625 0 -4.21875 6.296875zm-0.765625 3.828125q-0.265625 1.78125 -0.265625 3.015625q0 1.4375 0.53125 2.359375q0.546875 0.90625 1.609375 0.90625q2.796875 0 4.25 -6.28125l-6.125 0z" fill-rule="nonzero"></path><path fill="#000000" fill-opacity="0.0" d="m45.160107 26.041994l442.58267 0l0 28.377954l-442.58267 0z" fill-rule="nonzero"></path><path fill="#000000" d="m102.7922 46.395035l0 -9.859375l1.5 0l0 1.390625q0.453125 -0.71875 1.21875 -1.15625q0.78125 -0.453125 1.765625 -0.453125q1.09375 0 1.796875 0.453125q0.703125 0.453125 0.984375 1.28125q1.171875 -1.734375 3.046875 -1.734375q1.46875 0 2.25 0.8125q0.796875 0.8125 0.796875 2.5l0 6.765625l-1.671875 0l0 -6.203125q0 -1.0 -0.15625 -1.4375q-0.15625 -0.453125 -0.59375 -0.71875q-0.421875 -0.265625 -1.0 -0.265625q-1.03125 0 -1.71875 0.6875q-0.6875 0.6875 -0.6875 2.21875l0 5.71875l-1.671875 0l0 -6.40625q0 -1.109375 -0.40625 -1.65625q-0.40625 -0.5625 -1.34375 -0.5625q-0.703125 0 -1.3125 0.375q-0.59375 0.359375 -0.859375 1.078125q-0.265625 0.71875 -0.265625 2.0625l0 5.109375l-1.671875 0zm21.978302 -1.21875q-0.9375 0.796875 -1.796875 1.125q-0.859375 0.3125 -1.84375 0.3125q-1.609375 0 -2.484375 -0.78125q-0.875 -0.796875 -0.875 -2.03125q0 -0.734375 0.328125 -1.328125q0.328125 -0.59375 0.859375 -0.953125q0.53125 -0.359375 1.203125 -0.546875q0.5 -0.140625 1.484375 -0.25q2.03125 -0.25 2.984375 -0.578125q0 -0.34375 0 -0.4375q0 -1.015625 -0.46875 -1.4375q-0.640625 -0.5625 -1.90625 -0.5625q-1.171875 0 -1.734375 0.40625q-0.5625 0.40625 -0.828125 1.46875l-1.640625 -0.234375q0.234375 -1.046875 0.734375 -1.6875q0.515625 -0.640625 1.46875 -0.984375q0.96875 -0.359375 2.25 -0.359375q1.265625 0 2.046875 0.296875q0.78125 0.296875 1.15625 0.75q0.375 0.453125 0.515625 1.140625q0.09375 0.421875 0.09375 1.53125l0 2.234375q0 2.328125 0.09375 2.953125q0.109375 0.609375 0.4375 1.171875l-1.75 0q-0.265625 -0.515625 -0.328125 -1.21875zm-0.140625 -3.71875q-0.90625 0.359375 -2.734375 0.625q-1.03125 0.140625 -1.453125 0.328125q-0.421875 0.1875 -0.65625 0.546875q-0.234375 0.359375 -0.234375 0.796875q0 0.671875 0.5 1.125q0.515625 0.4375 1.484375 0.4375q0.96875 0 1.71875 -0.421875q0.75 -0.4375 1.109375 -1.15625q0.265625 -0.578125 0.265625 -1.671875l0 -0.609375zm4.063225 4.9375l0 -9.859375l1.5 0l0 1.5q0.578125 -1.046875 1.0625 -1.375q0.484375 -0.34375 1.078125 -0.34375q0.84375 0 1.71875 0.546875l-0.578125 1.546875q-0.609375 -0.359375 -1.234375 -0.359375q-0.546875 0 -0.984375 0.328125q-0.421875 0.328125 -0.609375 0.90625q-0.28125 0.890625 -0.28125 1.953125l0 5.15625l-1.671875 0zm7.775177 0l-1.546875 0l0 -13.59375l1.65625 0l0 4.84375q1.0625 -1.328125 2.703125 -1.328125q0.90625 0 1.71875 0.375q0.8125 0.359375 1.328125 1.03125q0.53125 0.65625 0.828125 1.59375q0.296875 0.9375 0.296875 2.0q0 2.53125 -1.25 3.921875q-1.25 1.375 -3.0 1.375q-1.75 0 -2.734375 -1.453125l0 1.234375zm-0.015625 -5.0q0 1.765625 0.46875 2.5625q0.796875 1.28125 2.140625 1.28125q1.09375 0 1.890625 -0.9375q0.796875 -0.953125 0.796875 -2.84375q0 -1.921875 -0.765625 -2.84375q-0.765625 -0.921875 -1.84375 -0.921875q-1.09375 0 -1.890625 0.953125q-0.796875 0.953125 -0.796875 2.75zm8.813217 5.0l0 -13.59375l1.671875 0l0 13.59375l-1.671875 0zm10.926071 -3.171875l1.71875 0.21875q-0.40625 1.5 -1.515625 2.34375q-1.09375 0.828125 -2.8125 0.828125q-2.15625 0 -3.421875 -1.328125q-1.265625 -1.328125 -1.265625 -3.734375q0 -2.484375 1.265625 -3.859375q1.28125 -1.375 3.328125 -1.375q1.984375 0 3.234375 1.34375q1.25 1.34375 1.25 3.796875q0 0.140625 -0.015625 0.4375l-7.34375 0q0.09375 1.625 0.921875 2.484375q0.828125 0.859375 2.0625 0.859375q0.90625 0 1.546875 -0.46875q0.65625 -0.484375 1.046875 -1.546875zm-5.484375 -2.703125l5.5 0q-0.109375 -1.234375 -0.625 -1.859375q-0.796875 -0.96875 -2.078125 -0.96875q-1.140625 0 -1.9375 0.78125q-0.78125 0.765625 -0.859375 2.046875zm20.684021 5.875l0 -1.25q-0.9375 1.46875 -2.75 1.46875q-1.171875 0 -2.171875 -0.640625q-0.984375 -0.65625 -1.53125 -1.8125q-0.53125 -1.171875 -0.53125 -2.6875q0 -1.46875 0.484375 -2.671875q0.5 -1.203125 1.46875 -1.84375q0.984375 -0.640625 2.203125 -0.640625q0.890625 0 1.578125 0.375q0.703125 0.375 1.140625 0.984375l0 -4.875l1.65625 0l0 13.59375l-1.546875 0zm-5.28125 -4.921875q0 1.890625 0.796875 2.828125q0.8125 0.9375 1.890625 0.9375q1.09375 0 1.859375 -0.890625q0.765625 -0.890625 0.765625 -2.734375q0 -2.015625 -0.78125 -2.953125q-0.78125 -0.953125 -1.921875 -0.953125q-1.109375 0 -1.859375 0.90625q-0.75 0.90625 -0.75 2.859375zm9.250717 4.921875l0 -9.859375l1.5 0l0 1.5q0.578125 -1.046875 1.0625 -1.375q0.484375 -0.34375 1.078125 -0.34375q0.84375 0 1.71875 0.546875l-0.578125 1.546875q-0.609375 -0.359375 -1.234375 -0.359375q-0.546875 0 -0.984375 0.328125q-0.421875 0.328125 -0.609375 0.90625q-0.28125 0.890625 -0.28125 1.953125l0 5.15625l-1.671875 0zm5.603302 -4.921875q0 -2.734375 1.53125 -4.0625q1.265625 -1.09375 3.09375 -1.09375q2.03125 0 3.3125 1.34375q1.296875 1.328125 1.296875 3.671875q0 1.90625 -0.578125 3.0q-0.5625 1.078125 -1.65625 1.6875q-1.078125 0.59375 -2.375 0.59375q-2.0625 0 -3.34375 -1.328125q-1.28125 -1.328125 -1.28125 -3.8125zm1.71875 0q0 1.890625 0.828125 2.828125q0.828125 0.9375 2.078125 0.9375q1.25 0 2.0625 -0.9375q0.828125 -0.953125 0.828125 -2.890625q0 -1.828125 -0.828125 -2.765625q-0.828125 -0.9375 -2.0625 -0.9375q-1.25 0 -2.078125 0.9375q-0.828125 0.9375 -0.828125 2.828125zm9.281967 8.703125l0 -13.640625l1.53125 0l0 1.28125q0.53125 -0.75 1.203125 -1.125q0.6875 -0.375 1.640625 -0.375q1.265625 0 2.234375 0.65625q0.96875 0.640625 1.453125 1.828125q0.5 1.1875 0.5 2.59375q0 1.515625 -0.546875 2.734375q-0.546875 1.203125 -1.578125 1.84375q-1.03125 0.640625 -2.171875 0.640625q-0.84375 0 -1.515625 -0.34375q-0.65625 -0.359375 -1.078125 -0.890625l0 4.796875l-1.671875 0zm1.515625 -8.65625q0 1.90625 0.765625 2.8125q0.78125 0.90625 1.875 0.90625q1.109375 0 1.890625 -0.9375q0.796875 -0.9375 0.796875 -2.921875q0 -1.875 -0.78125 -2.8125q-0.765625 -0.9375 -1.84375 -0.9375q-1.0625 0 -1.890625 1.0q-0.8125 1.0 -0.8125 2.890625zm8.860092 8.65625l0 -13.640625l1.53125 0l0 1.28125q0.53125 -0.75 1.203125 -1.125q0.6875 -0.375 1.640625 -0.375q1.265625 0 2.234375 0.65625q0.96875 0.640625 1.453125 1.828125q0.5 1.1875 0.5 2.59375q0 1.515625 -0.546875 2.734375q-0.546875 1.203125 -1.578125 1.84375q-1.03125 0.640625 -2.171875 0.640625q-0.84375 0 -1.515625 -0.34375q-0.65625 -0.359375 -1.078125 -0.890625l0 4.796875l-1.671875 0zm1.515625 -8.65625q0 1.90625 0.765625 2.8125q0.78125 0.90625 1.875 0.90625q1.109375 0 1.890625 -0.9375q0.796875 -0.9375 0.796875 -2.921875q0 -1.875 -0.78125 -2.8125q-0.765625 -0.9375 -1.84375 -0.9375q-1.0625 0 -1.890625 1.0q-0.8125 1.0 -0.8125 2.890625zm15.610092 1.703125l1.71875 0.21875q-0.40625 1.5 -1.515625 2.34375q-1.09375 0.828125 -2.8125 0.828125q-2.15625 0 -3.421875 -1.328125q-1.265625 -1.328125 -1.265625 -3.734375q0 -2.484375 1.265625 -3.859375q1.28125 -1.375 3.328125 -1.375q1.984375 0 3.234375 1.34375q1.25 1.34375 1.25 3.796875q0 0.140625 -0.015625 0.4375l-7.34375 0q0.09375 1.625 0.921875 2.484375q0.828125 0.859375 2.0625 0.859375q0.90625 0 1.546875 -0.46875q0.65625 -0.484375 1.046875 -1.546875zm-5.484375 -2.703125l5.5 0q-0.109375 -1.234375 -0.625 -1.859375q-0.796875 -0.96875 -2.078125 -0.96875q-1.140625 0 -1.9375 0.78125q-0.78125 0.765625 -0.859375 2.046875zm15.500717 5.875l0 -1.25q-0.9375 1.46875 -2.75 1.46875q-1.171875 0 -2.171875 -0.640625q-0.984375 -0.65625 -1.53125 -1.8125q-0.53125 -1.171875 -0.53125 -2.6875q0 -1.46875 0.484375 -2.671875q0.5 -1.203125 1.46875 -1.84375q0.984375 -0.640625 2.203125 -0.640625q0.890625 0 1.578125 0.375q0.703125 0.375 1.140625 0.984375l0 -4.875l1.65625 0l0 13.59375l-1.546875 0zm-5.28125 -4.921875q0 1.890625 0.796875 2.828125q0.8125 0.9375 1.890625 0.9375q1.09375 0 1.859375 -0.890625q0.765625 -0.890625 0.765625 -2.734375q0 -2.015625 -0.78125 -2.953125q-0.78125 -0.953125 -1.921875 -0.953125q-1.109375 0 -1.859375 0.90625q-0.75 0.90625 -0.75 2.859375zm18.105896 3.421875l0.234375 1.484375q-0.703125 0.140625 -1.265625 0.140625q-0.90625 0 -1.40625 -0.28125q-0.5 -0.296875 -0.703125 -0.75q-0.203125 -0.46875 -0.203125 -1.984375l0 -5.65625l-1.234375 0l0 -1.3125l1.234375 0l0 -2.4375l1.65625 -1.0l0 3.4375l1.6875 0l0 1.3125l-1.6875 0l0 5.75q0 0.71875 0.078125 0.921875q0.09375 0.203125 0.296875 0.328125q0.203125 0.125 0.578125 0.125q0.265625 0 0.734375 -0.078125zm1.5270538 1.5l0 -13.59375l1.671875 0l0 4.875q1.171875 -1.359375 2.953125 -1.359375q1.09375 0 1.890625 0.4375q0.8125 0.421875 1.15625 1.1875q0.359375 0.765625 0.359375 2.203125l0 6.25l-1.671875 0l0 -6.25q0 -1.25 -0.546875 -1.8125q-0.546875 -0.578125 -1.53125 -0.578125q-0.75 0 -1.40625 0.390625q-0.640625 0.375 -0.921875 1.046875q-0.28125 0.65625 -0.28125 1.8125l0 5.390625l-1.671875 0zm10.360092 0l0 -9.859375l1.5 0l0 1.5q0.578125 -1.046875 1.0625 -1.375q0.484375 -0.34375 1.078125 -0.34375q0.84375 0 1.71875 0.546875l-0.578125 1.546875q-0.609375 -0.359375 -1.234375 -0.359375q-0.546875 0 -0.984375 0.328125q-0.421875 0.328125 -0.609375 0.90625q-0.28125 0.890625 -0.28125 1.953125l0 5.15625l-1.671875 0zm5.603302 -4.921875q0 -2.734375 1.53125 -4.0625q1.265625 -1.09375 3.09375 -1.09375q2.03125 0 3.3125 1.34375q1.296875 1.328125 1.296875 3.671875q0 1.90625 -0.578125 3.0q-0.5625 1.078125 -1.65625 1.6875q-1.078125 0.59375 -2.375 0.59375q-2.0625 0 -3.34375 -1.328125q-1.28125 -1.328125 -1.28125 -3.8125zm1.71875 0q0 1.890625 0.828125 2.828125q0.828125 0.9375 2.078125 0.9375q1.25 0 2.0625 -0.9375q0.828125 -0.953125 0.828125 -2.890625q0 -1.828125 -0.828125 -2.765625q-0.828125 -0.9375 -2.0625 -0.9375q-1.25 0 -2.078125 0.9375q-0.828125 0.9375 -0.828125 2.828125zm15.735077 4.921875l0 -1.453125q-1.140625 1.671875 -3.125 1.671875q-0.859375 0 -1.625 -0.328125q-0.75 -0.34375 -1.125 -0.84375q-0.359375 -0.5 -0.515625 -1.234375q-0.09375 -0.5 -0.09375 -1.5625l0 -6.109375l1.671875 0l0 5.46875q0 1.3125 0.09375 1.765625q0.15625 0.65625 0.671875 1.03125q0.515625 0.375 1.265625 0.375q0.75 0 1.40625 -0.375q0.65625 -0.390625 0.921875 -1.046875q0.28125 -0.671875 0.28125 -1.9375l0 -5.28125l1.671875 0l0 9.859375l-1.5 0zm3.6257324 0.8125l1.609375 0.25q0.109375 0.75 0.578125 1.09375q0.609375 0.453125 1.6875 0.453125q1.171875 0 1.796875 -0.46875q0.625 -0.453125 0.859375 -1.28125q0.125 -0.515625 0.109375 -2.15625q-1.09375 1.296875 -2.71875 1.296875q-2.03125 0 -3.15625 -1.46875q-1.109375 -1.46875 -1.109375 -3.515625q0 -1.40625 0.515625 -2.59375q0.515625 -1.203125 1.484375 -1.84375q0.96875 -0.65625 2.265625 -0.65625q1.75 0 2.875 1.40625l0 -1.1875l1.546875 0l0 8.515625q0 2.3125 -0.46875 3.265625q-0.46875 0.96875 -1.484375 1.515625q-1.015625 0.5625 -2.5 0.5625q-1.765625 0 -2.859375 -0.796875q-1.078125 -0.796875 -1.03125 -2.390625zm1.375 -5.921875q0 1.953125 0.765625 2.84375q0.78125 0.890625 1.9375 0.890625q1.140625 0 1.921875 -0.890625q0.78125 -0.890625 0.78125 -2.78125q0 -1.8125 -0.8125 -2.71875q-0.796875 -0.921875 -1.921875 -0.921875q-1.109375 0 -1.890625 0.90625q-0.78125 0.890625 -0.78125 2.671875zm9.297577 5.109375l0 -13.59375l1.671875 0l0 4.875q1.171875 -1.359375 2.953125 -1.359375q1.09375 0 1.890625 0.4375q0.8125 0.421875 1.15625 1.1875q0.359375 0.765625 0.359375 2.203125l0 6.25l-1.671875 0l0 -6.25q0 -1.25 -0.546875 -1.8125q-0.546875 -0.578125 -1.53125 -0.578125q-0.75 0 -1.40625 0.390625q-0.640625 0.375 -0.921875 1.046875q-0.28125 0.65625 -0.28125 1.8125l0 5.390625l-1.671875 0zm21.996521 -3.609375l1.640625 0.21875q-0.265625 1.6875 -1.375 2.65625q-1.109375 0.953125 -2.734375 0.953125q-2.015625 0 -3.25 -1.3125q-1.21875 -1.328125 -1.21875 -3.796875q0 -1.59375 0.515625 -2.78125q0.53125 -1.203125 1.609375 -1.796875q1.09375 -0.609375 2.359375 -0.609375q1.609375 0 2.625 0.8125q1.015625 0.8125 1.3125 2.3125l-1.625 0.25q-0.234375 -1.0 -0.828125 -1.5q-0.59375 -0.5 -1.421875 -0.5q-1.265625 0 -2.0625 0.90625q-0.78125 0.90625 -0.78125 2.859375q0 1.984375 0.765625 2.890625q0.765625 0.890625 1.984375 0.890625q0.984375 0 1.640625 -0.59375q0.65625 -0.609375 0.84375 -1.859375zm9.328125 2.390625q-0.9375 0.796875 -1.796875 1.125q-0.859375 0.3125 -1.84375 0.3125q-1.609375 0 -2.484375 -0.78125q-0.875 -0.796875 -0.875 -2.03125q0 -0.734375 0.328125 -1.328125q0.328125 -0.59375 0.859375 -0.953125q0.53125 -0.359375 1.203125 -0.546875q0.5 -0.140625 1.484375 -0.25q2.03125 -0.25 2.984375 -0.578125q0 -0.34375 0 -0.4375q0 -1.015625 -0.46875 -1.4375q-0.640625 -0.5625 -1.90625 -0.5625q-1.171875 0 -1.734375 0.40625q-0.5625 0.40625 -0.828125 1.46875l-1.640625 -0.234375q0.234375 -1.046875 0.734375 -1.6875q0.515625 -0.640625 1.46875 -0.984375q0.96875 -0.359375 2.25 -0.359375q1.265625 0 2.046875 0.296875q0.78125 0.296875 1.15625 0.75q0.375 0.453125 0.515625 1.140625q0.09375 0.421875 0.09375 1.53125l0 2.234375q0 2.328125 0.09375 2.953125q0.109375 0.609375 0.4375 1.171875l-1.75 0q-0.265625 -0.515625 -0.328125 -1.21875zm-0.140625 -3.71875q-0.90625 0.359375 -2.734375 0.625q-1.03125 0.140625 -1.453125 0.328125q-0.421875 0.1875 -0.65625 0.546875q-0.234375 0.359375 -0.234375 0.796875q0 0.671875 0.5 1.125q0.515625 0.4375 1.484375 0.4375q0.96875 0 1.71875 -0.421875q0.75 -0.4375 1.109375 -1.15625q0.265625 -0.578125 0.265625 -1.671875l0 -0.609375zm4.063202 4.9375l0 -9.859375l1.5 0l0 1.5q0.578125 -1.046875 1.0625 -1.375q0.484375 -0.34375 1.078125 -0.34375q0.84375 0 1.71875 0.546875l-0.578125 1.546875q-0.609375 -0.359375 -1.234375 -0.359375q-0.546875 0 -0.984375 0.328125q-0.421875 0.328125 -0.609375 0.90625q-0.28125 0.890625 -0.28125 1.953125l0 5.15625l-1.671875 0zm12.6189575 0l0 -1.25q-0.9375 1.46875 -2.75 1.46875q-1.171875 0 -2.171875 -0.640625q-0.984375 -0.65625 -1.53125 -1.8125q-0.53125 -1.171875 -0.53125 -2.6875q0 -1.46875 0.484375 -2.671875q0.5 -1.203125 1.46875 -1.84375q0.984375 -0.640625 2.203125 -0.640625q0.890625 0 1.578125 0.375q0.703125 0.375 1.140625 0.984375l0 -4.875l1.65625 0l0 13.59375l-1.546875 0zm-5.28125 -4.921875q0 1.890625 0.796875 2.828125q0.8125 0.9375 1.890625 0.9375q1.09375 0 1.859375 -0.890625q0.765625 -0.890625 0.765625 -2.734375q0 -2.015625 -0.78125 -2.953125q-0.78125 -0.953125 -1.921875 -0.953125q-1.109375 0 -1.859375 0.90625q-0.75 0.90625 -0.75 2.859375zm10.813202 4.921875l-1.546875 0l0 -13.59375l1.65625 0l0 4.84375q1.0625 -1.328125 2.703125 -1.328125q0.90625 0 1.71875 0.375q0.8125 0.359375 1.328125 1.03125q0.53125 0.65625 0.828125 1.59375q0.296875 0.9375 0.296875 2.0q0 2.53125 -1.25 3.921875q-1.25 1.375 -3.0 1.375q-1.75 0 -2.734375 -1.453125l0 1.234375zm-0.015625 -5.0q0 1.765625 0.46875 2.5625q0.796875 1.28125 2.140625 1.28125q1.09375 0 1.890625 -0.9375q0.796875 -0.953125 0.796875 -2.84375q0 -1.921875 -0.765625 -2.84375q-0.765625 -0.921875 -1.84375 -0.921875q-1.09375 0 -1.890625 0.953125q-0.796875 0.953125 -0.796875 2.75zm8.219452 0.078125q0 -2.734375 1.53125 -4.0625q1.265625 -1.09375 3.09375 -1.09375q2.03125 0 3.3125 1.34375q1.296875 1.328125 1.296875 3.671875q0 1.90625 -0.578125 3.0q-0.5625 1.078125 -1.65625 1.6875q-1.078125 0.59375 -2.375 0.59375q-2.0625 0 -3.34375 -1.328125q-1.28125 -1.328125 -1.28125 -3.8125zm1.71875 0q0 1.890625 0.828125 2.828125q0.828125 0.9375 2.078125 0.9375q1.25 0 2.0625 -0.9375q0.828125 -0.953125 0.828125 -2.890625q0 -1.828125 -0.828125 -2.765625q-0.828125 -0.9375 -2.0625 -0.9375q-1.25 0 -2.078125 0.9375q-0.828125 0.9375 -0.828125 2.828125zm15.719482 3.703125q-0.9375 0.796875 -1.796875 1.125q-0.859375 0.3125 -1.84375 0.3125q-1.609375 0 -2.484375 -0.78125q-0.875 -0.796875 -0.875 -2.03125q0 -0.734375 0.328125 -1.328125q0.328125 -0.59375 0.859375 -0.953125q0.53125 -0.359375 1.203125 -0.546875q0.5 -0.140625 1.484375 -0.25q2.03125 -0.25 2.984375 -0.578125q0 -0.34375 0 -0.4375q0 -1.015625 -0.46875 -1.4375q-0.640625 -0.5625 -1.90625 -0.5625q-1.171875 0 -1.734375 0.40625q-0.5625 0.40625 -0.828125 1.46875l-1.640625 -0.234375q0.234375 -1.046875 0.734375 -1.6875q0.515625 -0.640625 1.46875 -0.984375q0.96875 -0.359375 2.25 -0.359375q1.265625 0 2.046875 0.296875q0.78125 0.296875 1.15625 0.75q0.375 0.453125 0.515625 1.140625q0.09375 0.421875 0.09375 1.53125l0 2.234375q0 2.328125 0.09375 2.953125q0.109375 0.609375 0.4375 1.171875l-1.75 0q-0.265625 -0.515625 -0.328125 -1.21875zm-0.140625 -3.71875q-0.90625 0.359375 -2.734375 0.625q-1.03125 0.140625 -1.453125 0.328125q-0.421875 0.1875 -0.65625 0.546875q-0.234375 0.359375 -0.234375 0.796875q0 0.671875 0.5 1.125q0.515625 0.4375 1.484375 0.4375q0.96875 0 1.71875 -0.421875q0.75 -0.4375 1.109375 -1.15625q0.265625 -0.578125 0.265625 -1.671875l0 -0.609375zm4.0632324 4.9375l0 -9.859375l1.5 0l0 1.5q0.578125 -1.046875 1.0625 -1.375q0.484375 -0.34375 1.078125 -0.34375q0.84375 0 1.71875 0.546875l-0.578125 1.546875q-0.609375 -0.359375 -1.234375 -0.359375q-0.546875 0 -0.984375 0.328125q-0.421875 0.328125 -0.609375 0.90625q-0.28125 0.890625 -0.28125 1.953125l0 5.15625l-1.671875 0zm12.6189575 0l0 -1.25q-0.9375 1.46875 -2.75 1.46875q-1.171875 0 -2.171875 -0.640625q-0.984375 -0.65625 -1.53125 -1.8125q-0.53125 -1.171875 -0.53125 -2.6875q0 -1.46875 0.484375 -2.671875q0.5 -1.203125 1.46875 -1.84375q0.984375 -0.640625 2.203125 -0.640625q0.890625 0 1.578125 0.375q0.703125 0.375 1.140625 0.984375l0 -4.875l1.65625 0l0 13.59375l-1.546875 0zm-5.28125 -4.921875q0 1.890625 0.796875 2.828125q0.8125 0.9375 1.890625 0.9375q1.09375 0 1.859375 -0.890625q0.765625 -0.890625 0.765625 -2.734375q0 -2.015625 -0.78125 -2.953125q-0.78125 -0.953125 -1.921875 -0.953125q-1.109375 0 -1.859375 0.90625q-0.75 0.90625 -0.75 2.859375zm18.105835 3.421875l0.234375 1.484375q-0.703125 0.140625 -1.265625 0.140625q-0.90625 0 -1.40625 -0.28125q-0.5 -0.296875 -0.703125 -0.75q-0.203125 -0.46875 -0.203125 -1.984375l0 -5.65625l-1.234375 0l0 -1.3125l1.234375 0l0 -2.4375l1.65625 -1.0l0 3.4375l1.6875 0l0 1.3125l-1.6875 0l0 5.75q0 0.71875 0.078125 0.921875q0.09375 0.203125 0.296875 0.328125q0.203125 0.125 0.578125 0.125q0.265625 0 0.734375 -0.078125zm7.9801636 1.5l0 -1.453125q-1.140625 1.671875 -3.125 1.671875q-0.859375 0 -1.625 -0.328125q-0.75 -0.34375 -1.125 -0.84375q-0.359375 -0.5 -0.515625 -1.234375q-0.09375 -0.5 -0.09375 -1.5625l0 -6.109375l1.671875 0l0 5.46875q0 1.3125 0.09375 1.765625q0.15625 0.65625 0.671875 1.03125q0.515625 0.375 1.265625 0.375q0.75 0 1.40625 -0.375q0.65625 -0.390625 0.921875 -1.046875q0.28125 -0.671875 0.28125 -1.9375l0 -5.28125l1.671875 0l0 9.859375l-1.5 0zm5.4694824 0l-1.546875 0l0 -13.59375l1.65625 0l0 4.84375q1.0625 -1.328125 2.703125 -1.328125q0.90625 0 1.71875 0.375q0.8125 0.359375 1.328125 1.03125q0.53125 0.65625 0.828125 1.59375q0.296875 0.9375 0.296875 2.0q0 2.53125 -1.25 3.921875q-1.25 1.375 -3.0 1.375q-1.75 0 -2.734375 -1.453125l0 1.234375zm-0.015625 -5.0q0 1.765625 0.46875 2.5625q0.796875 1.28125 2.140625 1.28125q1.09375 0 1.890625 -0.9375q0.796875 -0.953125 0.796875 -2.84375q0 -1.921875 -0.765625 -2.84375q-0.765625 -0.921875 -1.84375 -0.921875q-1.09375 0 -1.890625 0.953125q-0.796875 0.953125 -0.796875 2.75zm15.594482 1.828125l1.71875 0.21875q-0.40625 1.5 -1.515625 2.34375q-1.09375 0.828125 -2.8125 0.828125q-2.15625 0 -3.421875 -1.328125q-1.265625 -1.328125 -1.265625 -3.734375q0 -2.484375 1.265625 -3.859375q1.28125 -1.375 3.328125 -1.375q1.984375 0 3.234375 1.34375q1.25 1.34375 1.25 3.796875q0 0.140625 -0.015625 0.4375l-7.34375 0q0.09375 1.625 0.921875 2.484375q0.828125 0.859375 2.0625 0.859375q0.90625 0 1.546875 -0.46875q0.65625 -0.484375 1.046875 -1.546875zm-5.484375 -2.703125l5.5 0q-0.109375 -1.234375 -0.625 -1.859375q-0.796875 -0.96875 -2.078125 -0.96875q-1.140625 0 -1.9375 0.78125q-0.78125 0.765625 -0.859375 2.046875z" fill-rule="nonzero"></path><path fill="#000000" fill-opacity="0.0" d="m352.25986 171.42586l125.165344 181.73228l-44.629913 30.740173l-125.165375 -181.7323z" fill-rule="nonzero"></path><path fill="#000000" d="m359.1907 233.76294l0.75045776 1.475235q-1.5404358 0.73846436 -2.9674988 0.37434387q-1.4142151 -0.37298584 -2.3359375 -1.7112885q-1.1433105 -1.6600037 -0.7625427 -3.4210968q0.40246582 -1.7570953 2.435608 -3.1574707q1.3125305 -0.90405273 2.5829773 -1.1529999q1.2921753 -0.24494934 2.3926697 0.30615234q1.1222534 0.55511475 1.8401489 1.5974426q0.9128723 1.3254242 0.8198242 2.622757q-0.09307861 1.2973175 -1.1600037 2.392685l-1.1276245 -1.1964874q0.6906128 -0.76026917 0.765625 -1.5328827q0.07498169 -0.7726135 -0.39474487 -1.4546356q-0.7178955 -1.0423279 -1.9162292 -1.1845398q-1.1894836 -0.12934875 -2.7980042 0.97854614q-1.6342163 1.1256256 -1.9462891 2.2702332q-0.29919434 1.1357422 0.39212036 2.1394653q0.5583496 0.81069946 1.4195557 1.0143738q0.8740845 0.1947937 2.0098877 -0.35983276zm3.3222961 9.038391q-1.1880493 -0.32006836 -1.9457092 -0.84169006q-0.744812 -0.53048706 -1.3031921 -1.3411865q-0.9128418 -1.3254395 -0.7657776 -2.489212q0.15994263 -1.1726379 1.1765137 -1.8728333q0.60479736 -0.41656494 1.2799072 -0.48313904q0.67510986 -0.0665741 1.2723999 0.167099q0.59729004 0.23365784 1.1328125 0.68063354q0.39941406 0.332016 1.0478516 1.0806732q1.3580627 1.5310669 2.1689148 2.129898q0.28308105 -0.19499207 0.36029053 -0.24816895q0.8364258 -0.57611084 0.91796875 -1.2014618q0.09988403 -0.8466644 -0.6180115 -1.8889923q-0.66470337 -0.9651184 -1.3183289 -1.197937q-0.6536255 -0.2328186 -1.6793213 0.15112305l-0.73757935 -1.4841156q0.99508667 -0.4008026 1.8063049 -0.352417q0.82003784 0.061264038 1.6437683 0.6512451q0.845459 0.5939636 1.5722046 1.6491699q0.7178955 1.0423279 0.9165344 1.8541412q0.19866943 0.8117981 0.038208008 1.3776703q-0.16046143 0.5658722 -0.6469116 1.0716705q-0.2942505 0.31651306 -1.2078857 0.9458008l-1.8401184 1.2674408q-1.9173279 1.3206024 -2.3788452 1.7523499q-0.43981934 0.43574524 -0.71694946 1.0250397l-0.99264526 -1.4412384q0.27398682 -0.5112457 0.81759644 -0.9615631zm2.9828186 -2.2252502q-0.8100281 -0.5424957 -2.0657043 -1.8974152q-0.70077515 -0.76953125 -1.0944824 -1.0106201q-0.39370728 -0.24107361 -0.8226013 -0.23025513q-0.42892456 0.01083374 -0.7892151 0.2590027q-0.5533447 0.38111877 -0.6428833 1.049942q-0.067840576 0.67282104 0.48165894 1.4706421q0.5494995 0.7978363 1.3223267 1.1762085q0.7857361 0.36950684 1.5815125 0.25776672q0.62677 -0.109176636 1.5275269 -0.729599l0.5018616 -0.3456726zm-1.7615662 6.1470947l8.11969 -5.5926666l0.8508301 1.2353516l-1.235321 0.8508606q1.190094 -0.1177063 1.7350464 0.095077515q0.5578613 0.20393372 0.8946533 0.6929321q0.47857666 0.69487 0.5245056 1.725708l-1.6018372 0.40133667q-0.049682617 -0.705719 -0.40420532 -1.2204437q-0.31021118 -0.45039368 -0.82858276 -0.62457275q-0.5095215 -0.16131592 -1.09198 0.012207031q-0.8930054 0.27357483 -1.7680359 0.8762665l-4.2464294 2.9248505l-0.94833374 -1.3769073zm7.157715 10.392548l1.029419 -0.7090759q-1.741333 0.061065674 -2.7694397 -1.4316559q-0.66470337 -0.9651184 -0.7043152 -2.1520844q-0.017913818 -1.1829529 0.624115 -2.289215q0.6637573 -1.1022491 1.9119568 -1.9619904q1.2095947 -0.8331299 2.4751587 -1.116684q1.2744446 -0.27067566 2.351532 0.16375732q1.0859375 0.4473114 1.7772522 1.4510345q0.5051575 0.73349 0.5863037 1.5124054q0.08999634 0.79177856 -0.16369629 1.497757l4.014801 -2.7653046l0.9394531 1.3640289l-11.195129 7.7109833l-0.8774109 -1.2739563zm1.0577698 -7.1413727q-1.5570068 1.0724335 -1.8770752 2.2605133q-0.31121826 1.200943 0.30029297 2.088852q0.62042236 0.9007721 1.788147 1.0261078q1.1677551 0.12535095 2.6861877 -0.92051697q1.6599731 -1.1433411 1.9888916 -2.3185425q0.3418274 -1.1840668 -0.30517578 -2.1234589q-0.62924194 -0.91363525 -1.8009949 -1.0172424q-1.1717834 -0.10362244 -2.7802734 1.0042877zm2.0800781 11.697311l-0.8774414 -1.2739563l11.195129 -7.7109833l0.9394531 1.3640442l-3.9890442 2.7475739q1.6964417 0.121673584 2.6270447 1.4728394q0.5140381 0.7463684 0.66607666 1.6282349q0.16488647 0.87298584 -0.095947266 1.678772q-0.23913574 0.8097534 -0.84280396 1.5860596q-0.60369873 0.77627563 -1.4787292 1.3789673q-2.0845947 1.435852 -3.9388733 1.195221q-1.8414001 -0.24951172 -2.8340454 -1.6907654q-0.99261475 -1.4412231 -0.35427856 -3.0762024l-1.0165405 0.7001953zm4.1088867 -2.8490906q-1.4541016 1.0015259 -1.8444824 1.8395996q-0.60317993 1.3830566 0.1590271 2.489746q0.62039185 0.90075684 1.8444824 1.0252686q1.2369385 0.115600586 2.7939758 -0.95684814q1.5827637 -1.0901489 1.9076843 -2.2436218q0.32495117 -1.1534729 -0.28659058 -2.0413818q-0.62039185 -0.90078735 -1.8573608 -1.0164185q-1.2369385 -0.115600586 -2.7167358 0.903656zm4.5979004 6.8135986q2.251892 -1.5510559 4.214203 -1.043335q1.6186523 0.42190552 2.6556091 1.9274902q1.1521606 1.6728516 0.7722473 3.4902954q-0.3581543 1.8214111 -2.2883606 3.1509094q-1.5698853 1.0812988 -2.7985535 1.2255859q-1.2069702 0.14831543 -2.329193 -0.40679932q-1.1005249 -0.55111694 -1.8361511 -1.6191711q-1.1698914 -1.6986084 -0.80285645 -3.5071716q0.3670349 -1.8085632 2.4130554 -3.217804zm0.97488403 1.4154968q-1.5570068 1.0724487 -1.859375 2.286255q-0.30233765 1.2138062 0.40667725 2.2432556q0.7090454 1.02948 1.9419861 1.1668396q1.2546692 0.14135742 2.8502808 -0.9576721q1.5055542 -1.0370178 1.8079224 -2.250824q0.30233765 -1.2138062 -0.39782715 -2.2303772q-0.7090149 -1.02948 -1.9508362 -1.1796875q-1.2417908 -0.15023804 -2.7988281 0.9222107zm5.866699 15.0466q-1.1880493 -0.32006836 -1.9457397 -0.8416748q-0.744812 -0.53048706 -1.3031616 -1.3411865q-0.9128723 -1.3254395 -0.7657776 -2.4892273q0.15994263 -1.1726379 1.1765137 -1.8728333q0.60479736 -0.41656494 1.2799072 -0.48312378q0.67507935 -0.066589355 1.2723999 0.16708374q0.59729004 0.2336731 1.1328125 0.68063354q0.39941406 0.33203125 1.0478516 1.0806885q1.3580322 1.5310669 2.1688843 2.1298828q0.28311157 -0.1949768 0.36032104 -0.24816895q0.8364258 -0.57611084 0.91796875 -1.2014465q0.09988403 -0.8466797 -0.6180115 -1.8890076q-0.66470337 -0.9651184 -1.3183594 -1.197937q-0.6536255 -0.2328186 -1.6792908 0.15112305l-0.73757935 -1.4841003q0.99508667 -0.40081787 1.8062744 -0.352417q0.82006836 0.06124878 1.6437988 0.6512146q0.845459 0.59399414 1.5722046 1.6492004q0.7178955 1.0423279 0.9165344 1.854126q0.19863892 0.8117981 0.03817749 1.3776855q-0.16046143 0.56585693 -0.6468811 1.0716553q-0.2942505 0.31652832 -1.2078857 0.9458008l-1.8401184 1.267456q-1.9173279 1.3205872 -2.3788757 1.7523499q-0.43978882 0.43572998 -0.71691895 1.0250244l-0.99264526 -1.4412231q0.27398682 -0.511261 0.81759644 -0.96157837zm2.982788 -2.2252502q-0.80999756 -0.54248047 -2.0657043 -1.8973999q-0.7007446 -0.76953125 -1.0944519 -1.0106201q-0.3937378 -0.24108887 -0.82263184 -0.23025513q-0.42889404 0.01083374 -0.7892151 0.2590027q-0.5533142 0.38110352 -0.6428833 1.0499268q-0.06781006 0.67282104 0.48165894 1.4706421q0.5494995 0.79785156 1.3223572 1.1762085q0.78570557 0.36950684 1.5814819 0.25778198q0.62680054 -0.109191895 1.5275574 -0.72961426l0.50183105 -0.3456726zm-1.7615356 6.1470947l8.11969 -5.5926514l0.8508301 1.2353516l-1.235321 0.8508606q1.1900635 -0.1177063 1.7350464 0.095062256q0.5578308 0.20394897 0.8946228 0.6929321q0.47860718 0.69488525 0.52453613 1.725708l-1.6018677 0.40133667q-0.049682617 -0.705719 -0.4041748 -1.2204285q-0.31021118 -0.45040894 -0.82858276 -0.62457275q-0.5095215 -0.16131592 -1.0920105 0.012207031q-0.8930054 0.27355957 -1.7680054 0.8762512l-4.2464294 2.9248657l-0.94833374 -1.3769226zm7.157715 10.392548l1.029419 -0.7090454q-1.7413635 0.061035156 -2.7694397 -1.4316711q-0.66470337 -0.9651184 -0.7043457 -2.1520996q-0.017913818 -1.1829529 0.6241455 -2.289215q0.6637573 -1.1022339 1.9119568 -1.9619751q1.2095642 -0.8331299 2.4751587 -1.1166992q1.2744446 -0.2706604 2.351532 0.16375732q1.0859375 0.44732666 1.7772217 1.4510498q0.505188 0.73349 0.5863037 1.5123901q0.090026855 0.7918091 -0.16366577 1.4977722l4.014801 -2.7653198l0.9394531 1.3640442l-11.195129 7.710968l-0.8774109 -1.2739563zm1.0577698 -7.1413574q-1.5570374 1.0724182 -1.8771057 2.260498q-0.31121826 1.2009583 0.3003235 2.0888367q0.62039185 0.90078735 1.788147 1.0261536q1.1677551 0.1253357 2.6861877 -0.9205322q1.6599426 -1.1433411 1.9888916 -2.3185425q0.34179688 -1.184082 -0.30517578 -2.1234741q-0.62927246 -0.91363525 -1.8010254 -1.0172424q-1.1717529 -0.10360718 -2.780243 1.004303zm7.451935 16.852448l-1.089508 1.0350342q-0.51464844 -0.4992981 -0.8337097 -0.96255493q-0.5140381 -0.7463684 -0.56604004 -1.317688q-0.039123535 -0.5802002 0.21884155 -1.0045166q0.270813 -0.4331665 1.5190125 -1.2929077l4.658203 -3.2084656l-0.7001648 -1.0166016l1.0809326 -0.74450684l0.7001343 1.0166016l2.0074158 -1.3826599l1.7630005 0.79678345l-2.8309326 1.9499207l0.95718384 1.38974l-1.0809326 0.74453735l-0.95718384 -1.3897705l-4.7354126 3.2616272q-0.59191895 0.40771484 -0.71487427 0.5872803q-0.114105225 0.19244385 -0.10183716 0.43063354q0.012268066 0.2381897 0.22497559 0.5470276q0.15066528 0.21875 0.480896 0.56048584zm3.2911682 7.423065l1.1967163 -0.8242798q-2.0238647 0.008972168 -3.149414 -1.6252747q-0.48745728 -0.7077637 -0.6515198 -1.5244446q-0.14230347 -0.8126526 0.056762695 -1.4051208q0.20791626 -0.57958984 0.7240906 -1.1248474q0.35858154 -0.36080933 1.2336121 -0.9635315l5.031372 -3.4654846l0.94833374 1.3768921l-4.503784 3.1021118q-1.0809326 0.74450684 -1.4009094 1.0787659q-0.45184326 0.5009155 -0.46820068 1.1383057q-0.016357422 0.6373596 0.40905762 1.2550354q0.42541504 0.6176758 1.1065063 0.9454346q0.6939087 0.31887817 1.3850403 0.16537476q0.7128601 -0.1494751 1.7551575 -0.8674011l4.349365 -2.995758l0.94833374 1.3768921l-8.11969 5.592682l-0.8508301 -1.2353516zm3.1023865 4.504486l-0.8774109 -1.2739563l11.195129 -7.710968l0.9394531 1.3640137l-3.9890747 2.747589q1.6964722 0.121673584 2.6270447 1.4728394q0.5140686 0.7463684 0.66607666 1.6282349q0.16491699 0.87298584 -0.095947266 1.678772q-0.23910522 0.8097534 -0.84280396 1.5860596q-0.6036682 0.77627563 -1.4786987 1.3789673q-2.0845947 1.435852 -3.9388733 1.195221q-1.8414001 -0.24951172 -2.8340454 -1.6907654q-0.99264526 -1.4412231 -0.35427856 -3.0762024l-1.016571 0.7001953zm4.1088867 -2.8490906q-1.454071 1.0015259 -1.8444519 1.8395996q-0.60317993 1.3830566 0.1590271 2.489746q0.62039185 0.90075684 1.8444824 1.0252686q1.2369385 0.115600586 2.7939758 -0.9568176q1.5827637 -1.0901794 1.9076843 -2.2436523q0.32495117 -1.1534729 -0.28659058 -2.0413818q-0.62039185 -0.90078735 -1.8573608 -1.0164185q-1.2369385 -0.115600586 -2.7167664 0.903656zm7.3399353 13.880066l0.79473877 1.5395813q-1.4657288 0.5162964 -2.7898865 0.08126831q-1.3023987 -0.43103027 -2.2772827 -1.8465271q-1.2230835 -1.7758179 -0.8471985 -3.5715332q0.37591553 -1.7956848 2.3575745 -3.160614q2.04599 -1.4092407 3.8962708 -1.1468811q1.8591309 0.27523804 3.0201416 1.960968q1.1255798 1.6342773 0.7279663 3.4259644q-0.39761353 1.791687 -2.4178772 3.183197q-0.11581421 0.07977295 -0.36917114 0.23532104l-4.1655273 -6.048065q-1.2850952 0.9989624 -1.5231018 2.168457q-0.23800659 1.1694946 0.4621582 2.1860962q0.5140381 0.7463379 1.2634583 1.0080566q0.7711487 0.26568604 1.8677368 -0.015289307zm-0.8846741 -6.0500793l3.11969 4.529602q0.9545288 -0.7902527 1.1767883 -1.5694275q0.34579468 -1.2058105 -0.38095093 -2.2609863q-0.64697266 -0.9393921 -1.7423706 -1.1525269q-1.0736694 -0.20910645 -2.1731567 0.45333862z" fill-rule="nonzero"></path><path fill="#000000" fill-opacity="0.0" d="m624.5171 627.3307l233.54327 0l0 47.748047l-233.54327 0z" fill-rule="nonzero"></path><path fill="#000000" d="m724.7988 657.3688l0 -8.546875l-1.484375 0l0 -1.3125l1.484375 0l0 -1.046875q0 -0.984375 0.171875 -1.46875q0.234375 -0.65625 0.84375 -1.046875q0.609375 -0.40625 1.703125 -0.40625q0.703125 0 1.5625 0.15625l-0.25 1.46875q-0.515625 -0.09375 -0.984375 -0.09375q-0.765625 0 -1.078125 0.328125q-0.3125 0.3125 -0.3125 1.203125l0 0.90625l1.921875 0l0 1.3125l-1.921875 0l0 8.546875l-1.65625 0zm4.7458496 0l0 -13.59375l1.671875 0l0 13.59375l-1.671875 0zm3.5510254 -4.921875q0 -2.734375 1.53125 -4.0625q1.265625 -1.09375 3.09375 -1.09375q2.03125 0 3.3125 1.34375q1.296875 1.328125 1.296875 3.671875q0 1.90625 -0.578125 3.0q-0.5625 1.078125 -1.65625 1.6875q-1.078125 0.59375 -2.375 0.59375q-2.0625 0 -3.34375 -1.328125q-1.28125 -1.328125 -1.28125 -3.8125zm1.71875 0q0 1.890625 0.828125 2.828125q0.828125 0.9375 2.078125 0.9375q1.25 0 2.0625 -0.9375q0.828125 -0.953125 0.828125 -2.890625q0 -1.828125 -0.828125 -2.765625q-0.828125 -0.9375 -2.0625 -0.9375q-1.25 0 -2.078125 0.9375q-0.828125 0.9375 -0.828125 2.828125zm8.656982 0q0 -2.734375 1.53125 -4.0625q1.265625 -1.09375 3.09375 -1.09375q2.03125 0 3.3125 1.34375q1.296875 1.328125 1.296875 3.671875q0 1.90625 -0.578125 3.0q-0.5625 1.078125 -1.65625 1.6875q-1.078125 0.59375 -2.375 0.59375q-2.0625 0 -3.34375 -1.328125q-1.28125 -1.328125 -1.28125 -3.8125zm1.71875 0q0 1.890625 0.828125 2.828125q0.828125 0.9375 2.078125 0.9375q1.25 0 2.0625 -0.9375q0.828125 -0.953125 0.828125 -2.890625q0 -1.828125 -0.828125 -2.765625q-0.828125 -0.9375 -2.0625 -0.9375q-1.25 0 -2.078125 0.9375q-0.828125 0.9375 -0.828125 2.828125zm9.266357 4.921875l0 -9.859375l1.5 0l0 1.5q0.578125 -1.046875 1.0625 -1.375q0.484375 -0.34375 1.078125 -0.34375q0.84375 0 1.71875 0.546875l-0.578125 1.546875q-0.609375 -0.359375 -1.234375 -0.359375q-0.546875 0 -0.984375 0.328125q-0.421875 0.328125 -0.609375 0.90625q-0.28125 0.890625 -0.28125 1.953125l0 5.15625l-1.671875 0z" fill-rule="nonzero"></path><path fill="#9900ff" d="m840.5171 596.9974l0 0c0 -7.905945 6.930725 -14.314941 15.480286 -14.314941l0 0c8.549561 0 15.480286 6.4089966 15.480286 14.314941l0 0c0 7.905945 -6.930725 14.314941 -15.480286 14.314941l0 0c-8.549561 0 -15.480286 -6.4089966 -15.480286 -14.314941z" fill-rule="nonzero"></path><path stroke="#9900ff" stroke-width="2.0" stroke-linejoin="round" stroke-linecap="butt" d="m840.5171 596.9974l0 0c0 -7.905945 6.930725 -14.314941 15.480286 -14.314941l0 0c8.549561 0 15.480286 6.4089966 15.480286 14.314941l0 0c0 7.905945 -6.930725 14.314941 -15.480286 14.314941l0 0c-8.549561 0 -15.480286 -6.4089966 -15.480286 -14.314941z" fill-rule="nonzero"></path><path fill="#000000" fill-opacity="0.0" d="m694.1942 481.52493l218.07874 0l0 76.12601l-218.07874 0z" fill-rule="nonzero"></path><path fill="#000000" d="m731.6546 525.752l0 -13.59375l1.8125 0l0 5.578125l7.0625 0l0 -5.578125l1.796875 0l0 13.59375l-1.796875 0l0 -6.40625l-7.0625 0l0 6.40625l-1.8125 0zm12.582336 -4.921875q0 -2.734375 1.53125 -4.0625q1.265625 -1.09375 3.09375 -1.09375q2.03125 0 3.3125 1.34375q1.296875 1.328125 1.296875 3.671875q0 1.90625 -0.578125 3.0q-0.5625 1.078125 -1.65625 1.6875q-1.078125 0.59375 -2.375 0.59375q-2.0625 0 -3.34375 -1.328125q-1.28125 -1.328125 -1.28125 -3.8125zm1.71875 0q0 1.890625 0.828125 2.828125q0.828125 0.9375 2.078125 0.9375q1.25 0 2.0625 -0.9375q0.828125 -0.953125 0.828125 -2.890625q0 -1.828125 -0.828125 -2.765625q-0.828125 -0.9375 -2.0625 -0.9375q-1.25 0 -2.078125 0.9375q-0.828125 0.9375 -0.828125 2.828125zm11.110107 4.921875l-3.015625 -9.859375l1.71875 0l1.5625 5.6875l0.59375 2.125q0.03125 -0.15625 0.5 -2.03125l1.578125 -5.78125l1.71875 0l1.46875 5.71875l0.484375 1.890625l0.578125 -1.90625l1.6875 -5.703125l1.625 0l-3.078125 9.859375l-1.734375 0l-1.578125 -5.90625l-0.375 -1.671875l-2.0 7.578125l-1.734375 0zm17.234375 0l0 -8.546875l-1.484375 0l0 -1.3125l1.484375 0l0 -1.046875q0 -0.984375 0.171875 -1.46875q0.234375 -0.65625 0.84375 -1.046875q0.609375 -0.40628052 1.703125 -0.40628052q0.703125 0 1.5625 0.15628052l-0.25 1.46875q-0.515625 -0.09375 -0.984375 -0.09375q-0.765625 0 -1.078125 0.328125q-0.3125 0.3125 -0.3125 1.203125l0 0.90625l1.921875 0l0 1.3125l-1.921875 0l0 8.546875l-1.65625 0zm11.214539 -1.21875q-0.9375 0.796875 -1.796875 1.125q-0.859375 0.3125 -1.84375 0.3125q-1.609375 0 -2.484375 -0.78125q-0.875 -0.796875 -0.875 -2.03125q0 -0.734375 0.328125 -1.328125q0.328125 -0.59375 0.859375 -0.953125q0.53125 -0.359375 1.203125 -0.546875q0.5 -0.140625 1.484375 -0.25q2.03125 -0.25 2.984375 -0.578125q0 -0.34375 0 -0.4375q0 -1.015625 -0.46875 -1.4375q-0.640625 -0.5625 -1.90625 -0.5625q-1.171875 0 -1.734375 0.40625q-0.5625 0.40625 -0.828125 1.46875l-1.640625 -0.234375q0.234375 -1.046875 0.734375 -1.6875q0.515625 -0.640625 1.46875 -0.984375q0.96875 -0.359375 2.25 -0.359375q1.265625 0 2.046875 0.296875q0.78125 0.296875 1.15625 0.75q0.375 0.453125 0.515625 1.140625q0.09375 0.421875 0.09375 1.53125l0 2.234375q0 2.328125 0.09375 2.953125q0.109375 0.609375 0.4375 1.171875l-1.75 0q-0.265625 -0.515625 -0.328125 -1.21875zm-0.140625 -3.71875q-0.90625 0.359375 -2.734375 0.625q-1.03125 0.140625 -1.453125 0.328125q-0.421875 0.1875 -0.65625 0.546875q-0.234375 0.359375 -0.234375 0.796875q0 0.671875 0.5 1.125q0.515625 0.4375 1.484375 0.4375q0.96875 0 1.71875 -0.421875q0.75 -0.4375 1.109375 -1.15625q0.265625 -0.578125 0.265625 -1.671875l0 -0.609375zm4.0632324 4.9375l0 -9.859375l1.5 0l0 1.5q0.578125 -1.046875 1.0625 -1.375q0.484375 -0.34375 1.078125 -0.34375q0.84375 0 1.71875 0.546875l-0.578125 1.546875q-0.609375 -0.359375 -1.234375 -0.359375q-0.546875 0 -0.984375 0.328125q-0.421875 0.328125 -0.609375 0.90625q-0.28125 0.890625 -0.28125 1.953125l0 5.15625l-1.671875 0zm13.239685 0l-3.015625 -9.859375l1.71875 0l1.5625 5.6875l0.59375 2.125q0.03125 -0.15625 0.5 -2.03125l1.578125 -5.78125l1.71875 0l1.46875 5.71875l0.484375 1.890625l0.578125 -1.90625l1.6875 -5.703125l1.625 0l-3.078125 9.859375l-1.734375 0l-1.578125 -5.90625l-0.375 -1.671875l-2.0 7.578125l-1.734375 0zm11.660461 -11.6875l0 -1.90625l1.671875 0l0 1.90625l-1.671875 0zm0 11.6875l0 -9.859375l1.671875 0l0 9.859375l-1.671875 0zm4.0979614 0l0 -13.59375l1.671875 0l0 13.59375l-1.671875 0zm4.1448364 0l0 -13.59375l1.671875 0l0 13.59375l-1.671875 0zm9.375 -11.6875l0 -1.90625l1.671875 0l0 1.90625l-1.671875 0zm0 11.6875l0 -9.859375l1.671875 0l0 9.859375l-1.671875 0zm7.7854004 -1.5l0.234375 1.484375q-0.703125 0.140625 -1.265625 0.140625q-0.90625 0 -1.40625 -0.28125q-0.5 -0.296875 -0.703125 -0.75q-0.203125 -0.46875 -0.203125 -1.984375l0 -5.65625l-1.234375 0l0 -1.3125l1.234375 0l0 -2.4375l1.65625 -1.0l0 3.4375l1.6875 0l0 1.3125l-1.6875 0l0 5.75q0 0.71875 0.078125 0.921875q0.09375 0.203125 0.296875 0.328125q0.203125 0.125 0.578125 0.125q0.265625 0 0.734375 -0.078125zm6.413513 2.3125l1.609375 0.25q0.109375 0.75 0.578125 1.09375q0.609375 0.453125 1.6875 0.453125q1.171875 0 1.796875 -0.46875q0.625 -0.453125 0.859375 -1.28125q0.125 -0.515625 0.109375 -2.15625q-1.09375 1.296875 -2.71875 1.296875q-2.03125 0 -3.15625 -1.46875q-1.109375 -1.46875 -1.109375 -3.515625q0 -1.40625 0.515625 -2.59375q0.515625 -1.203125 1.484375 -1.84375q0.96875 -0.65625 2.265625 -0.65625q1.75 0 2.875 1.40625l0 -1.1875l1.546875 0l0 8.515625q0 2.3125 -0.46875 3.265625q-0.46875 0.96875 -1.484375 1.515625q-1.015625 0.5625 -2.5 0.5625q-1.765625 0 -2.859375 -0.796875q-1.078125 -0.796875 -1.03125 -2.390625zm1.375 -5.921875q0 1.953125 0.765625 2.84375q0.78125 0.890625 1.9375 0.890625q1.140625 0 1.921875 -0.890625q0.78125 -0.890625 0.78125 -2.78125q0 -1.8125 -0.8125 -2.71875q-0.796875 -0.921875 -1.921875 -0.921875q-1.109375 0 -1.890625 0.90625q-0.78125 0.890625 -0.78125 2.671875zm8.672607 0.1875q0 -2.734375 1.53125 -4.0625q1.265625 -1.09375 3.09375 -1.09375q2.03125 0 3.3125 1.34375q1.296875 1.328125 1.296875 3.671875q0 1.90625 -0.578125 3.0q-0.5625 1.078125 -1.65625 1.6875q-1.078125 0.59375 -2.375 0.59375q-2.0625 0 -3.34375 -1.328125q-1.28125 -1.328125 -1.28125 -3.8125zm1.71875 0q0 1.890625 0.828125 2.828125q0.828125 0.9375 2.078125 0.9375q1.25 0 2.0625 -0.9375q0.828125 -0.953125 0.828125 -2.890625q0 -1.828125 -0.828125 -2.765625q-0.828125 -0.9375 -2.0625 -0.9375q-1.25 0 -2.078125 0.9375q-0.828125 0.9375 -0.828125 2.828125zm12.406921 1.578125q0 -0.34375 0 -0.5q0 -0.984375 0.265625 -1.703125q0.21875 -0.546875 0.671875 -1.09375q0.328125 -0.390625 1.1875 -1.15625q0.875 -0.765625 1.125 -1.21875q0.265625 -0.453125 0.265625 -1.0q0 -0.96875 -0.765625 -1.703125q-0.75 -0.734375 -1.859375 -0.734375q-1.0625 0 -1.78125 0.671875q-0.703125 0.65625 -0.9375 2.078125l-1.71875 -0.203125q0.234375 -1.90625 1.375 -2.90625q1.15625 -1.0156555 3.03125 -1.0156555q2.0 0 3.1875 1.0937805q1.1875 1.078125 1.1875 2.609375q0 0.890625 -0.421875 1.640625q-0.40625 0.75 -1.625 1.828125q-0.8125 0.734375 -1.0625 1.078125q-0.25 0.34375 -0.375 0.796875q-0.125 0.4375 -0.140625 1.4375l-1.609375 0zm-0.09375 3.34375l0 -1.90625l1.890625 0l0 1.90625l-1.890625 0z" fill-rule="nonzero"></path><path fill="#9900ff" d="m539.34644 596.9974l0 0c0 -7.905945 6.930786 -14.314941 15.480347 -14.314941l0 0c8.549561 0 15.480286 6.4089966 15.480286 14.314941l0 0c0 7.905945 -6.930725 14.314941 -15.480286 14.314941l0 0c-8.549561 0 -15.480347 -6.4089966 -15.480347 -14.314941z" fill-rule="nonzero"></path><path stroke="#9900ff" stroke-width="2.0" stroke-linejoin="round" stroke-linecap="butt" d="m539.34644 596.9974l0 0c0 -7.905945 6.930786 -14.314941 15.480347 -14.314941l0 0c8.549561 0 15.480286 6.4089966 15.480286 14.314941l0 0c0 7.905945 -6.930725 14.314941 -15.480286 14.314941l0 0c-8.549561 0 -15.480347 -6.4089966 -15.480347 -14.314941z" fill-rule="nonzero"></path><path fill="#000000" fill-opacity="0.0" d="m570.30707 596.9974l61.95276 -0.62994385" fill-rule="nonzero"></path><path stroke="#000000" stroke-width="2.0" stroke-linejoin="round" stroke-linecap="butt" d="m570.30707 596.9974l49.95337 -0.5079346" fill-rule="evenodd"></path><path fill="#000000" stroke="#000000" stroke-width="2.0" stroke-linecap="butt" d="m620.29407 599.7927l9.042114 -3.3955688l-9.109314 -3.2109985z" fill-rule="evenodd"></path><path fill="#000000" fill-opacity="0.0" d="m264.51706 285.39633l59.370087 89.03937" fill-rule="nonzero"></path><path stroke="#000000" stroke-width="2.0" stroke-linejoin="round" stroke-linecap="butt" d="m264.51706 285.39633l52.71286 79.05533" fill-rule="evenodd"></path><path fill="#000000" stroke="#000000" stroke-width="2.0" stroke-linecap="butt" d="m314.4814 366.2843l7.7836914 5.7187805l-2.2866821 -9.384094z" fill-rule="evenodd"></path></g></svg>

